<svg width="24" height="24" viewBox="0 0 24 24" fill="none" xmlns="http://www.w3.org/2000/svg">
<g clip-path="url(#clip0_3035_2364)">
<path d="M-4 0H28V24H-4V0Z" fill="#003399"/>
<path d="M12 3.81885L11.6445 5.00403L12.237 5.12255L12 3.81885Z" fill="#FFCC00"/>
<path d="M12 3.81891L12.3555 5.00409L11.763 5.12261L12 3.81891Z" fill="#FFCC00"/>
<path d="M13.1272 4.63777L11.8901 4.66586L11.9605 5.26608L13.1272 4.63777Z" fill="#FFCC00"/>
<path d="M13.1272 4.63774L12.1099 5.34213L11.814 4.81517L13.1272 4.63774Z" fill="#FFCC00"/>
<path d="M12.6966 5.96284L12.2877 4.79501L11.7386 5.04744L12.6966 5.96284Z" fill="#FFCC00"/>
<path d="M12.6966 5.96282L11.7124 5.21298L12.1221 4.76878L12.6966 5.96282Z" fill="#FFCC00"/>
<path d="M10.8729 4.63777L12.1099 4.66586L12.0395 5.26608L10.8729 4.63777Z" fill="#FFCC00"/>
<path d="M10.8728 4.63774L11.8901 5.34213L12.186 4.81517L10.8728 4.63774Z" fill="#FFCC00"/>
<path d="M11.3034 5.96284L11.7124 4.79501L12.2614 5.04744L11.3034 5.96284Z" fill="#FFCC00"/>
<path d="M11.3034 5.96282L12.2876 5.21298L11.8779 4.76878L11.3034 5.96282Z" fill="#FFCC00"/>
<path d="M12 18.0411L11.6445 19.2263L12.237 19.3448L12 18.0411Z" fill="#FFCC00"/>
<path d="M12 18.0411L12.3555 19.2263L11.763 19.3448L12 18.0411Z" fill="#FFCC00"/>
<path d="M13.1272 18.8599L11.8901 18.888L11.9605 19.4882L13.1272 18.8599Z" fill="#FFCC00"/>
<path d="M13.1272 18.8598L12.1099 19.5642L11.814 19.0373L13.1272 18.8598Z" fill="#FFCC00"/>
<path d="M12.6966 20.1849L12.2877 19.0171L11.7386 19.2696L12.6966 20.1849Z" fill="#FFCC00"/>
<path d="M12.6966 20.185L11.7124 19.4351L12.1221 18.9909L12.6966 20.185Z" fill="#FFCC00"/>
<path d="M10.8729 18.8599L12.1099 18.888L12.0395 19.4882L10.8729 18.8599Z" fill="#FFCC00"/>
<path d="M10.8728 18.8598L11.8901 19.5642L12.186 19.0373L10.8728 18.8598Z" fill="#FFCC00"/>
<path d="M11.3034 20.1849L11.7124 19.0171L12.2614 19.2696L11.3034 20.1849Z" fill="#FFCC00"/>
<path d="M11.3034 20.185L12.2876 19.4351L11.8779 18.9909L11.3034 20.185Z" fill="#FFCC00"/>
<path d="M4.88893 10.9299L4.53337 12.1151L5.12596 12.2336L4.88893 10.9299Z" fill="#FFCC00"/>
<path d="M4.88892 10.9298L5.24448 12.115L4.65188 12.2335L4.88892 10.9298Z" fill="#FFCC00"/>
<path d="M6.01608 11.7489L4.77903 11.7769L4.84943 12.3772L6.01608 11.7489Z" fill="#FFCC00"/>
<path d="M6.0161 11.7489L4.9988 12.4533L4.70296 11.9263L6.0161 11.7489Z" fill="#FFCC00"/>
<path d="M5.58555 13.0739L5.17657 11.9061L4.62748 12.1585L5.58555 13.0739Z" fill="#FFCC00"/>
<path d="M5.58558 13.074L4.60129 12.3241L5.01105 11.8799L5.58558 13.074Z" fill="#FFCC00"/>
<path d="M3.76174 11.7489L4.99879 11.7769L4.92839 12.3772L3.76174 11.7489Z" fill="#FFCC00"/>
<path d="M3.76173 11.7489L4.77903 12.4533L5.07487 11.9263L3.76173 11.7489Z" fill="#FFCC00"/>
<path d="M4.19227 13.0739L4.60125 11.9061L5.15033 12.1585L4.19227 13.0739Z" fill="#FFCC00"/>
<path d="M4.19227 13.074L5.17655 12.3241L4.7668 11.8799L4.19227 13.074Z" fill="#FFCC00"/>
<path d="M7.83509 6.96923L8.81938 6.21939L8.40962 5.77519L7.83509 6.96923Z" fill="#FFCC00"/>
<path d="M7.83511 6.96918L8.24409 5.80136L8.79317 6.05379L7.83511 6.96918Z" fill="#FFCC00"/>
<path d="M7.40455 5.64421L8.42186 6.3486L8.71769 5.82164L7.40455 5.64421Z" fill="#FFCC00"/>
<path d="M7.40453 5.64431L8.64158 5.67239L8.57118 6.27261L7.40453 5.64431Z" fill="#FFCC00"/>
<path d="M8.53172 4.82538L8.17616 6.01056L8.76876 6.12908L8.53172 4.82538Z" fill="#FFCC00"/>
<path d="M8.53173 4.82532L8.88728 6.0105L8.29469 6.12902L8.53173 4.82532Z" fill="#FFCC00"/>
<path d="M9.22829 6.96942L8.24401 6.21957L8.65376 5.77537L9.22829 6.96942Z" fill="#FFCC00"/>
<path d="M9.22833 6.96949L8.81934 5.80166L8.27026 6.0541L9.22833 6.96949Z" fill="#FFCC00"/>
<path d="M9.65887 5.64433L8.64156 6.34873L8.34572 5.82176L9.65887 5.64433Z" fill="#FFCC00"/>
<path d="M9.65887 5.64437L8.42182 5.67246L8.49222 6.27267L9.65887 5.64437Z" fill="#FFCC00"/>
<path d="M6.59196 9.60566L6.18297 8.43783L5.63389 8.69027L6.59196 9.60566Z" fill="#FFCC00"/>
<path d="M6.59196 9.60571L5.60767 8.85586L6.01743 8.41166L6.59196 9.60571Z" fill="#FFCC00"/>
<path d="M5.19868 9.60571L6.18296 8.85586L5.77321 8.41166L5.19868 9.60571Z" fill="#FFCC00"/>
<path d="M5.19868 9.60572L5.60766 8.43789L6.15674 8.69033L5.19868 9.60572Z" fill="#FFCC00"/>
<path d="M4.76812 8.28068L5.78543 8.98508L6.08127 8.45811L4.76812 8.28068Z" fill="#FFCC00"/>
<path d="M4.76813 8.28072L6.00518 8.30881L5.93478 8.90902L4.76813 8.28072Z" fill="#FFCC00"/>
<path d="M7.02248 8.2805L6.00518 8.98489L5.70934 8.45793L7.02248 8.2805Z" fill="#FFCC00"/>
<path d="M7.02246 8.2806L5.7854 8.30869L5.85581 8.9089L7.02246 8.2806Z" fill="#FFCC00"/>
<path d="M5.8953 7.46161L6.25085 8.64679L5.65826 8.76531L5.8953 7.46161Z" fill="#FFCC00"/>
<path d="M5.8953 7.46167L5.53975 8.64685L6.13234 8.76537L5.8953 7.46167Z" fill="#FFCC00"/>
<path d="M7.02378 15.4088L5.78673 15.4369L5.85714 16.0371L7.02378 15.4088Z" fill="#FFCC00"/>
<path d="M7.02381 15.4087L6.0065 16.1131L5.71067 15.5862L7.02381 15.4087Z" fill="#FFCC00"/>
<path d="M6.59325 16.7338L6.18427 15.5659L5.63519 15.8184L6.59325 16.7338Z" fill="#FFCC00"/>
<path d="M6.59327 16.7338L5.60898 15.984L6.01874 15.5398L6.59327 16.7338Z" fill="#FFCC00"/>
<path d="M5.19999 16.7338L6.18427 15.9839L5.77452 15.5397L5.19999 16.7338Z" fill="#FFCC00"/>
<path d="M5.19999 16.7338L5.60897 15.5659L6.15805 15.8184L5.19999 16.7338Z" fill="#FFCC00"/>
<path d="M5.89661 14.5898L6.25217 15.775L5.65957 15.8935L5.89661 14.5898Z" fill="#FFCC00"/>
<path d="M5.89663 14.5898L5.54108 15.775L6.13367 15.8935L5.89663 14.5898Z" fill="#FFCC00"/>
<path d="M4.76946 15.4088L6.00651 15.4369L5.93611 16.0371L4.76946 15.4088Z" fill="#FFCC00"/>
<path d="M4.76943 15.4087L5.78674 16.1131L6.08258 15.5861L4.76943 15.4087Z" fill="#FFCC00"/>
<path d="M9.59606 17.7942L8.35901 17.8223L8.42942 18.4225L9.59606 17.7942Z" fill="#FFCC00"/>
<path d="M9.59608 17.7942L8.57877 18.4986L8.28293 17.9717L9.59608 17.7942Z" fill="#FFCC00"/>
<path d="M9.16552 19.1193L8.75654 17.9515L8.20746 18.2039L9.16552 19.1193Z" fill="#FFCC00"/>
<path d="M9.16553 19.1194L8.18125 18.3695L8.591 17.9253L9.16553 19.1194Z" fill="#FFCC00"/>
<path d="M7.77226 19.1193L8.75654 18.3695L8.34679 17.9253L7.77226 19.1193Z" fill="#FFCC00"/>
<path d="M7.77225 19.1193L8.18124 17.9515L8.73032 18.2039L7.77225 19.1193Z" fill="#FFCC00"/>
<path d="M8.46888 16.9753L8.82443 18.1605L8.23184 18.279L8.46888 16.9753Z" fill="#FFCC00"/>
<path d="M8.4689 16.9753L8.11334 18.1605L8.70593 18.279L8.4689 16.9753Z" fill="#FFCC00"/>
<path d="M7.34171 17.7943L8.57876 17.8224L8.50836 18.4226L7.34171 17.7943Z" fill="#FFCC00"/>
<path d="M7.3417 17.7943L8.359 18.4987L8.65484 17.9717L7.3417 17.7943Z" fill="#FFCC00"/>
<path d="M19.1111 10.9299L19.4667 12.1151L18.8741 12.2336L19.1111 10.9299Z" fill="#FFCC00"/>
<path d="M19.1111 10.9298L18.7556 12.115L19.3482 12.2335L19.1111 10.9298Z" fill="#FFCC00"/>
<path d="M17.984 11.7489L19.221 11.7769L19.1506 12.3772L17.984 11.7489Z" fill="#FFCC00"/>
<path d="M17.9839 11.7489L19.0012 12.4533L19.2971 11.9263L17.9839 11.7489Z" fill="#FFCC00"/>
<path d="M18.4145 13.0739L18.8235 11.9061L19.3725 12.1585L18.4145 13.0739Z" fill="#FFCC00"/>
<path d="M18.4145 13.074L19.3988 12.3241L18.989 11.8799L18.4145 13.074Z" fill="#FFCC00"/>
<path d="M20.2382 11.7489L19.0012 11.7769L19.0716 12.3772L20.2382 11.7489Z" fill="#FFCC00"/>
<path d="M20.2383 11.7489L19.221 12.4533L18.9251 11.9263L20.2383 11.7489Z" fill="#FFCC00"/>
<path d="M19.8077 13.0739L19.3987 11.9061L18.8497 12.1585L19.8077 13.0739Z" fill="#FFCC00"/>
<path d="M19.8078 13.074L18.8235 12.3241L19.2332 11.8799L19.8078 13.074Z" fill="#FFCC00"/>
<path d="M16.1649 6.96923L15.1806 6.21939L15.5904 5.77519L16.1649 6.96923Z" fill="#FFCC00"/>
<path d="M16.1649 6.96918L15.7559 5.80136L15.2069 6.05379L16.1649 6.96918Z" fill="#FFCC00"/>
<path d="M16.5955 5.64421L15.5782 6.3486L15.2823 5.82164L16.5955 5.64421Z" fill="#FFCC00"/>
<path d="M16.5955 5.64431L15.3584 5.67239L15.4288 6.27261L16.5955 5.64431Z" fill="#FFCC00"/>
<path d="M15.4683 4.82538L15.8239 6.01056L15.2313 6.12908L15.4683 4.82538Z" fill="#FFCC00"/>
<path d="M15.4683 4.82532L15.1128 6.0105L15.7054 6.12902L15.4683 4.82532Z" fill="#FFCC00"/>
<path d="M14.7717 6.96942L15.756 6.21957L15.3462 5.77537L14.7717 6.96942Z" fill="#FFCC00"/>
<path d="M14.7717 6.96949L15.1807 5.80166L15.7298 6.0541L14.7717 6.96949Z" fill="#FFCC00"/>
<path d="M14.3411 5.64433L15.3584 6.34873L15.6543 5.82176L14.3411 5.64433Z" fill="#FFCC00"/>
<path d="M14.3411 5.64437L15.5782 5.67246L15.5078 6.27267L14.3411 5.64437Z" fill="#FFCC00"/>
<path d="M17.4081 9.60566L17.8171 8.43783L18.3661 8.69027L17.4081 9.60566Z" fill="#FFCC00"/>
<path d="M17.408 9.60571L18.3923 8.85586L17.9826 8.41166L17.408 9.60571Z" fill="#FFCC00"/>
<path d="M18.8013 9.60571L17.817 8.85586L18.2268 8.41166L18.8013 9.60571Z" fill="#FFCC00"/>
<path d="M18.8013 9.60572L18.3923 8.43789L17.8432 8.69033L18.8013 9.60572Z" fill="#FFCC00"/>
<path d="M19.2319 8.28068L18.2146 8.98508L17.9187 8.45811L19.2319 8.28068Z" fill="#FFCC00"/>
<path d="M19.2319 8.28072L17.9948 8.30881L18.0652 8.90902L19.2319 8.28072Z" fill="#FFCC00"/>
<path d="M16.9775 8.2805L17.9948 8.98489L18.2906 8.45793L16.9775 8.2805Z" fill="#FFCC00"/>
<path d="M16.9775 8.2806L18.2145 8.30869L18.1441 8.9089L16.9775 8.2806Z" fill="#FFCC00"/>
<path d="M18.1047 7.46161L17.7491 8.64679L18.3417 8.76531L18.1047 7.46161Z" fill="#FFCC00"/>
<path d="M18.1047 7.46167L18.4603 8.64685L17.8677 8.76537L18.1047 7.46167Z" fill="#FFCC00"/>
<path d="M16.9762 15.4088L18.2133 15.4369L18.1429 16.0371L16.9762 15.4088Z" fill="#FFCC00"/>
<path d="M16.9762 15.4087L17.9935 16.1131L18.2894 15.5862L16.9762 15.4087Z" fill="#FFCC00"/>
<path d="M17.4067 16.7338L17.8157 15.5659L18.3648 15.8184L17.4067 16.7338Z" fill="#FFCC00"/>
<path d="M17.4067 16.7338L18.391 15.984L17.9813 15.5398L17.4067 16.7338Z" fill="#FFCC00"/>
<path d="M18.8 16.7338L17.8157 15.9839L18.2255 15.5397L18.8 16.7338Z" fill="#FFCC00"/>
<path d="M18.8 16.7338L18.391 15.5659L17.8419 15.8184L18.8 16.7338Z" fill="#FFCC00"/>
<path d="M18.1034 14.5898L17.7478 15.775L18.3404 15.8935L18.1034 14.5898Z" fill="#FFCC00"/>
<path d="M18.1034 14.5898L18.4589 15.775L17.8663 15.8935L18.1034 14.5898Z" fill="#FFCC00"/>
<path d="M19.2305 15.4088L17.9935 15.4369L18.0639 16.0371L19.2305 15.4088Z" fill="#FFCC00"/>
<path d="M19.2305 15.4087L18.2132 16.1131L17.9174 15.5861L19.2305 15.4087Z" fill="#FFCC00"/>
<path d="M14.404 17.7942L15.641 17.8223L15.5706 18.4225L14.404 17.7942Z" fill="#FFCC00"/>
<path d="M14.404 17.7942L15.4213 18.4986L15.7171 17.9717L14.404 17.7942Z" fill="#FFCC00"/>
<path d="M14.8345 19.1193L15.2434 17.9515L15.7925 18.2039L14.8345 19.1193Z" fill="#FFCC00"/>
<path d="M14.8345 19.1194L15.8188 18.3695L15.409 17.9253L14.8345 19.1194Z" fill="#FFCC00"/>
<path d="M16.2277 19.1193L15.2434 18.3695L15.6532 17.9253L16.2277 19.1193Z" fill="#FFCC00"/>
<path d="M16.2277 19.1193L15.8187 17.9515L15.2696 18.2039L16.2277 19.1193Z" fill="#FFCC00"/>
<path d="M15.5311 16.9753L15.1756 18.1605L15.7681 18.279L15.5311 16.9753Z" fill="#FFCC00"/>
<path d="M15.5311 16.9753L15.8867 18.1605L15.2941 18.279L15.5311 16.9753Z" fill="#FFCC00"/>
<path d="M16.6583 17.7943L15.4212 17.8224L15.4916 18.4226L16.6583 17.7943Z" fill="#FFCC00"/>
<path d="M16.6583 17.7943L15.6409 18.4987L15.3451 17.9717L16.6583 17.7943Z" fill="#FFCC00"/>
</g>
<defs>
<clipPath id="clip0_3035_2364">
<rect width="24" height="24" rx="12" fill="white"/>
</clipPath>
</defs>
</svg>
