<svg xmlns="http://www.w3.org/2000/svg" width="59" height="24" fill="none"><path fill="#676767" d="M10.796 3.094c-.69.81-1.792 1.45-2.894 1.359-.138-1.096.402-2.26 1.034-2.98C9.625.639 10.83.046 11.806 0c.116 1.142-.332 2.26-1.01 3.094Zm1 1.576c-1.597-.091-2.964.902-3.722.902-.77 0-1.93-.856-3.192-.834-1.643.023-3.17.948-4.009 2.42-1.722 2.947-.447 7.308 1.218 9.706.815 1.187 1.791 2.489 3.078 2.443 1.217-.045 1.7-.787 3.17-.787 1.48 0 1.906.787 3.192.765 1.332-.023 2.17-1.188 2.986-2.375.93-1.348 1.31-2.66 1.332-2.73-.023-.022-2.572-.993-2.595-3.915-.023-2.444 2.01-3.608 2.101-3.677-1.148-1.69-2.94-1.872-3.56-1.918Zm9.221-3.311v17.8h2.78v-6.086h3.847c3.514 0 5.983-2.398 5.983-5.868 0-3.471-2.423-5.846-5.892-5.846h-6.718Zm2.78 2.329H27c2.412 0 3.79 1.279 3.79 3.528 0 2.25-1.378 3.54-3.801 3.54h-3.193V3.688Zm14.906 15.608c1.746 0 3.365-.88 4.1-2.272h.057v2.135h2.573v-8.86c0-2.57-2.067-4.225-5.248-4.225-2.952 0-5.134 1.679-5.214 3.985h2.503c.207-1.096 1.229-1.815 2.63-1.815 1.7 0 2.653.787 2.653 2.237v.982l-3.468.206c-3.227.194-4.973 1.507-4.973 3.79 0 2.307 1.803 3.837 4.387 3.837Zm.746-2.112c-1.481 0-2.423-.708-2.423-1.793 0-1.119.908-1.77 2.642-1.872l3.089-.194v1.004c0 1.667-1.424 2.855-3.307 2.855ZM48.867 24c2.71 0 3.985-1.028 5.099-4.145l4.88-13.61h-2.824l-3.274 10.516h-.057L49.418 6.245h-2.906l4.709 12.96-.253.787c-.425 1.336-1.114 1.85-2.343 1.85-.218 0-.643-.023-.815-.046v2.136c.16.045.85.068 1.057.068Z"/></svg>