<svg width="60" height="36" viewBox="0 0 60 36" fill="none" xmlns="http://www.w3.org/2000/svg">
<path d="M22.5418 15.6316C21.4973 15.6316 20.8342 16.3116 20.6281 17.2131H24.3448C24.2187 16.2178 23.5218 15.6316 22.5418 15.6316Z" fill="#676767"/>
<path d="M12.6084 16.027C11.2792 16.027 10.4408 16.9439 10.4408 18.2254C10.4408 19.5069 11.2946 20.4391 12.6084 20.4391C13.9222 20.4391 14.8068 19.5376 14.8068 18.2254C14.8068 16.9131 13.9207 16.027 12.6084 16.027Z" fill="#676767"/>
<path d="M39.4319 13.924C37.4366 13.924 35.8828 14.7209 35.629 16.7901C35.6105 16.7916 35.6413 16.7901 35.6228 16.7901C34.9952 7.41353 27.5986 0 18.0636 0C10.5285 0 4.07801 4.63211 1.39505 11.2026H7.78401L7.45171 13.3533H2.43808V15.6316H6.97789L6.63021 17.7039H2.43808V19.033C2.43808 19.8392 2.78576 20.2191 3.45035 20.2191H7.73632L7.38864 22.3698H2.64269C2.41193 22.3698 2.19194 22.3483 1.98272 22.3114C1.98272 22.3114 1.16121 22.2237 0.652003 21.5622C0.639696 21.5468 0.432013 21.3006 0.330479 20.896C0.304326 20.7899 0.301249 20.7837 0.28125 20.7007C0.315095 20.9683 0.372015 21.3283 0.398168 21.4606C0.542777 22.2114 0.725846 22.8467 0.742769 22.8913C2.87499 30.4541 9.81931 36 18.0636 36C26.3078 36 33.6214 30.1987 35.5736 22.3714H33.1537V17.9746C33.1537 16.7885 32.6953 16.0285 31.5245 16.0285C30.3538 16.0285 29.8954 16.7885 29.8954 17.9746V22.3714H27.4755V17.3731C27.4755 14.984 29.2154 13.9256 31.5245 13.9256C33.8337 13.9256 35.5736 14.9855 35.5736 17.3731V22.3714H38.0073V17.9746C38.0073 16.7885 38.3242 16.0285 39.478 16.0285C39.8426 16.0285 40.2842 16.1393 40.4426 16.2178L40.9011 14.0979C40.6349 14.0656 39.9549 13.924 39.4319 13.924ZM17.2421 17.7362C17.2421 20.7576 15.4545 22.5283 12.4961 22.5283C9.75931 22.5283 7.90862 20.693 7.90862 18.2254C7.90862 15.7578 9.66393 13.9225 12.29 13.9225C13.4915 13.9225 14.3776 14.3963 14.8206 14.8717V11.2026H17.2405V17.7362H17.2421ZM23.348 20.7099C24.0602 20.7099 24.7187 20.5037 25.3371 20.2191L25.1356 22.1329C24.4402 22.4175 23.6018 22.5283 22.7634 22.5283C19.9789 22.5283 18.0174 20.8991 18.0174 18.1315C18.0174 15.727 19.7727 13.924 22.4618 13.924C25.4986 13.924 27.017 15.8532 26.954 18.8269H20.6912C20.9281 20.1884 22.2249 20.7099 23.348 20.7099Z" fill="#676767"/>
<path d="M44.9209 13.924C42.2318 13.924 40.4765 15.727 40.4765 18.1315C40.4765 20.8991 42.4379 22.5283 45.2224 22.5283C46.0608 22.5283 46.8993 22.4175 47.5946 22.1329L47.7962 20.2191C47.1793 20.5037 46.5193 20.7099 45.8085 20.7099C44.6855 20.7099 43.3887 20.1884 43.1517 18.8269H49.4161C49.4761 15.8532 47.9577 13.924 44.9209 13.924ZM43.0856 17.2146C43.2917 16.3132 43.9563 15.6332 44.9993 15.6332C45.9808 15.6332 46.6762 16.2178 46.8023 17.2146H43.0856Z" fill="#676767"/>
<path d="M56.5942 11.2026V14.8717C56.1512 14.3978 55.2651 13.9225 54.0636 13.9225C51.4375 13.9225 49.6822 15.647 49.6822 18.2254C49.6822 20.8037 51.5329 22.5283 54.2697 22.5283C57.2281 22.5283 59.0157 20.756 59.0157 17.7362V11.2026H56.5942ZM54.379 20.4407C53.0667 20.4407 52.2113 19.4915 52.2113 18.2269C52.2113 16.9624 53.0498 16.0285 54.379 16.0285C55.7081 16.0285 56.5773 16.9147 56.5773 18.2269C56.5773 19.5392 55.6927 20.4407 54.379 20.4407Z" fill="#676767"/>
</svg>
