<svg width="71" height="36" viewBox="0 0 71 36" fill="none" xmlns="http://www.w3.org/2000/svg">
<path d="M35.634 12.7847C35.8182 12.7859 35.8183 12.7853 35.9124 12.8384C35.961 12.898 35.9732 12.9412 35.968 13.0181C35.9342 13.1535 35.856 13.2733 35.7864 13.3931C35.7692 13.4233 35.7517 13.4536 35.7346 13.4839C35.7001 13.5449 35.6651 13.6057 35.6301 13.6665C35.5736 13.7647 35.5177 13.8636 35.4622 13.9624C35.4255 14.0275 35.3887 14.0927 35.3518 14.1577C35.2724 14.2977 35.194 14.4382 35.1155 14.5786C35.1019 14.6028 35.0874 14.6269 35.0735 14.6519C35.0461 14.7009 35.0189 14.7503 34.9915 14.7993C34.9233 14.9212 34.8546 15.0437 34.7864 15.1655C34.7592 15.214 34.7324 15.2626 34.7053 15.311C34.542 15.6027 34.3784 15.8944 34.2151 16.186C34.1949 16.2221 34.1947 16.2225 34.1741 16.2593C34.1469 16.3078 34.1192 16.3562 34.092 16.4048C34.0236 16.5269 33.9553 16.6498 33.887 16.772C33.7561 17.006 33.6246 17.2399 33.4924 17.4731C33.3821 17.6679 33.2728 17.8633 33.1643 18.0591C33.0435 18.277 32.9219 18.4947 32.7991 18.7114C32.6654 18.9475 32.5331 19.1846 32.4006 19.4214C32.3325 19.5432 32.2638 19.6648 32.1956 19.7866C32.1683 19.8352 32.1417 19.8845 32.1145 19.9331C32.0601 20.0303 32.0048 20.127 31.9504 20.2241C31.937 20.2481 31.9242 20.2726 31.9104 20.2974C31.8832 20.3459 31.8555 20.3944 31.8284 20.4429C31.76 20.565 31.6916 20.6879 31.6233 20.8101C31.4794 21.0672 31.3348 21.3241 31.1897 21.5806C31.0557 21.8174 30.9231 22.055 30.7903 22.2925C30.7221 22.4143 30.6534 22.5359 30.5852 22.6577C30.558 22.7063 30.5304 22.7546 30.5032 22.8032C30.3398 23.095 30.1773 23.3874 30.0139 23.6792C30.0005 23.7031 29.9867 23.7268 29.9729 23.7515L29.6858 24.2642C29.5549 24.4982 29.4235 24.732 29.2913 24.9653C29.1808 25.1603 29.0718 25.3563 28.9631 25.5522C28.8423 25.7702 28.7207 25.9878 28.5979 26.2046C28.4643 26.4405 28.3318 26.677 28.1995 26.9136C28.1177 27.0597 28.0352 27.206 27.9534 27.3521C27.885 27.4741 27.8166 27.5962 27.7483 27.7183C27.6805 27.8395 27.6131 27.9613 27.5452 28.0825C27.5178 28.1313 27.4904 28.1802 27.4631 28.229C27.4226 28.3015 27.3817 28.3743 27.3411 28.4468C27.3291 28.4683 27.3163 28.49 27.304 28.5122C27.0421 28.9776 27.0422 28.9777 26.8508 29.0415C26.812 29.0437 26.7725 29.0453 26.7336 29.0454H26.4963C26.4202 29.0457 26.344 29.0463 26.2678 29.0464C26.2201 29.0465 26.172 29.0463 26.1243 29.0464C25.9752 29.0467 25.8261 29.0473 25.677 29.0474C25.5047 29.0475 25.3317 29.0477 25.1594 29.0483C25.0264 29.0488 24.8931 29.0493 24.76 29.0493C24.6806 29.0493 24.6012 29.0489 24.5217 29.0493C24.433 29.0497 24.3439 29.0504 24.2551 29.0503H24.0383C23.9656 29.0395 23.9219 29.0142 23.8625 28.9712C23.8163 28.9018 23.8163 28.9014 23.8206 28.8247C23.84 28.7368 23.8672 28.6743 23.9114 28.5962C23.9337 28.5562 23.9335 28.556 23.9563 28.5151C23.9727 28.4864 23.9897 28.4579 24.0061 28.4292C24.0231 28.3991 24.04 28.3685 24.0569 28.3384C24.0916 28.2765 24.1264 28.2146 24.1614 28.1528C24.2241 28.0418 24.2862 27.9294 24.3479 27.8179C24.4733 27.5912 24.6002 27.3651 24.7268 27.1392C24.7813 27.042 24.8355 26.9444 24.8899 26.8472C24.9045 26.821 24.9197 26.795 24.9348 26.7681C25.0241 26.6083 25.1131 26.4479 25.2014 26.2876C25.2357 26.2256 25.2702 26.1638 25.3049 26.1021C25.8681 25.0867 26.0684 23.9438 26.0647 22.7954C26.0646 22.7672 26.0648 22.7385 26.0647 22.7095C26.0632 22.2489 26.0463 21.7963 25.9875 21.3394C25.9838 21.3096 25.9836 21.3092 25.9797 21.2788C25.9341 20.9166 25.8808 20.5553 25.8235 20.1948C25.82 20.1726 25.8164 20.1504 25.8127 20.1274C25.6445 19.0697 25.3888 18.0272 25.1497 16.9839C25.0513 16.5547 24.9542 16.1253 24.8577 15.6958C24.8541 15.6801 24.8506 15.6642 24.8469 15.6479C24.8042 15.4578 24.7617 15.2668 24.719 15.0767C24.6621 14.8235 24.605 14.5701 24.5481 14.3169C24.5305 14.2385 24.512 14.16 24.4944 14.0815C24.4889 14.0574 24.4834 14.0332 24.4778 14.0083C24.4671 13.9609 24.4571 13.9131 24.4465 13.8657C24.4206 13.7497 24.3934 13.6337 24.3655 13.5181C24.36 13.4952 24.3545 13.4723 24.3489 13.4487C24.3387 13.4058 24.3283 13.3626 24.3176 13.3198C24.2858 13.1853 24.2663 13.0509 24.2834 12.9126C24.3565 12.8129 24.4179 12.7929 24.5374 12.7925H24.6907C24.7183 12.7924 24.7462 12.7916 24.7747 12.7915H25.1467C25.296 12.7912 25.4457 12.7906 25.595 12.7905C25.7674 12.7904 25.9402 12.7902 26.1125 12.7896C26.2459 12.789 26.3796 12.7886 26.5129 12.7886C26.5924 12.7885 26.6718 12.788 26.7512 12.7876C26.84 12.7872 26.9291 12.7874 27.0178 12.7876C27.0441 12.7874 27.0708 12.7868 27.0979 12.7866C27.122 12.7868 27.1463 12.7875 27.1711 12.7876C27.1921 12.7876 27.214 12.7876 27.2356 12.7876C27.3242 12.8007 27.3861 12.8418 27.4495 12.9038C27.4958 12.9863 27.5133 13.0726 27.5334 13.1646C27.5382 13.1854 27.5432 13.2066 27.5481 13.228C27.5639 13.2975 27.5795 13.3675 27.595 13.437C27.606 13.4858 27.6171 13.5347 27.6282 13.5835C27.6579 13.7148 27.6867 13.8466 27.7161 13.978C27.7465 14.1138 27.7773 14.2495 27.8079 14.3853C27.8443 14.5467 27.881 14.7081 27.9172 14.8696C27.979 15.145 28.0411 15.4208 28.1047 15.6958C28.2494 16.321 28.3828 16.9433 28.4612 17.5806C28.4634 17.5988 28.4657 17.6175 28.468 17.6362C28.499 17.89 28.5261 18.1444 28.55 18.3989C28.554 18.4405 28.5587 18.4824 28.5627 18.5239C28.5898 18.8107 28.6024 19.0975 28.6125 19.3853C28.6135 19.4131 28.6145 19.4415 28.6155 19.4702C28.6205 19.6121 28.6259 19.7541 28.6301 19.896C28.6318 19.9487 28.6333 20.0015 28.635 20.0542C28.636 20.0909 28.636 20.0913 28.637 20.1284C28.6377 20.1511 28.6381 20.1743 28.6389 20.1978C28.6398 20.2276 28.64 20.2279 28.6409 20.2583C28.6486 20.3175 28.6616 20.356 28.6946 20.4058C28.7648 20.4378 28.7655 20.4378 28.8323 20.3999C29.0117 20.2692 29.0753 19.9426 29.1526 19.7397C29.3076 19.3339 29.4742 18.9341 29.6516 18.5376C29.6584 18.5224 29.6652 18.5073 29.6721 18.4917C29.8823 18.0208 30.1011 17.5542 30.3284 17.0913C30.3422 17.0631 30.3566 17.0346 30.3704 17.0063C30.5359 16.6678 30.7096 16.3357 30.8997 16.0103C30.9664 15.8949 31.031 15.778 31.0959 15.6616C31.1095 15.6373 31.123 15.6125 31.137 15.5874C31.1647 15.5377 31.1932 15.4877 31.2209 15.438C31.406 15.1068 31.5917 14.776 31.7786 14.4458C31.8716 14.2814 31.9637 14.1165 32.0559 13.9517C32.0967 13.8788 32.1372 13.8057 32.178 13.7329C32.2055 13.6838 32.2335 13.6346 32.261 13.5854C32.3015 13.513 32.3424 13.44 32.3831 13.3677C32.4009 13.3357 32.4008 13.3352 32.4192 13.3022C32.6704 12.8557 32.6709 12.856 32.8499 12.7964C32.89 12.7941 32.9307 12.7927 32.9709 12.7925C32.9958 12.7923 33.0206 12.7927 33.0461 12.7925C33.0736 12.7924 33.1018 12.7916 33.1301 12.7915C33.159 12.7914 33.1883 12.7917 33.218 12.7915C33.3139 12.791 33.4102 12.7908 33.5061 12.7905C33.539 12.7904 33.5719 12.7906 33.6047 12.7905C33.7601 12.7901 33.9161 12.7897 34.0715 12.7896C34.2508 12.7893 34.4304 12.7885 34.6096 12.7876C34.7482 12.7869 34.8871 12.7867 35.0256 12.7866C35.1083 12.7866 35.191 12.7862 35.2737 12.7856C35.366 12.785 35.4587 12.7845 35.551 12.7847C35.5783 12.7844 35.6059 12.785 35.634 12.7847ZM62.2659 12.5767C63.4142 12.3767 64.7389 12.6392 65.6262 13.4136C66.0603 13.8157 66.3407 14.3259 66.4856 14.897C66.493 14.9259 66.4927 14.9261 66.5002 14.9556C66.5787 15.2812 66.589 15.6086 66.5911 15.9419C66.5914 15.9711 66.5907 15.9714 66.5911 16.0015C66.5934 16.2425 66.5772 16.4778 66.5422 16.7163C66.5382 16.744 66.5347 16.7718 66.5305 16.8003C66.4686 17.2174 66.3946 17.6329 66.3225 18.0483C66.3009 18.173 66.2796 18.2977 66.2581 18.4224C66.2217 18.633 66.1851 18.8436 66.1487 19.0542C66.1121 19.2657 66.0758 19.4775 66.0393 19.689L65.9983 19.9233C65.9406 20.2576 65.8834 20.592 65.8254 20.9263C65.8211 20.9514 65.8163 20.9766 65.8118 21.0024C65.7942 21.1035 65.7766 21.2051 65.759 21.3062C65.7027 21.6306 65.6475 21.9552 65.592 22.2798C65.5637 22.4458 65.5347 22.6118 65.5061 22.7778C65.4834 22.9099 65.4611 23.0421 65.4387 23.1743C65.425 23.2548 65.4107 23.336 65.3967 23.4165C65.3904 23.4533 65.3843 23.4901 65.3782 23.5269C65.3697 23.5772 65.3606 23.628 65.3518 23.6782C65.347 23.7062 65.3421 23.7344 65.3372 23.7632C65.3102 23.8686 65.263 23.9539 65.179 24.0239C65.1107 24.0467 65.0664 24.05 64.9954 24.0503H64.8469C64.8202 24.0504 64.7934 24.0512 64.7659 24.0513C64.6767 24.0516 64.5875 24.0511 64.4983 24.0513C64.4521 24.0514 64.4058 24.0521 64.3596 24.0522C64.2308 24.0525 64.1017 24.0522 63.9729 24.0522C63.8063 24.0524 63.6395 24.0525 63.4729 24.0532C63.344 24.0537 63.215 24.0542 63.0862 24.0542C63.0094 24.0542 62.9325 24.0548 62.8557 24.0552C62.7699 24.0556 62.6837 24.0553 62.5979 24.0552C62.5598 24.0555 62.5597 24.0558 62.5208 24.0562C62.3034 24.0549 62.3032 24.0547 62.2141 23.9771C62.0795 23.7751 62.194 23.4354 62.2346 23.2085C62.2418 23.1672 62.2489 23.1258 62.2561 23.0845C62.2758 22.9716 62.2966 22.8584 62.3167 22.7456C62.338 22.6251 62.3581 22.5038 62.3792 22.3833C62.4194 22.1531 62.4606 21.923 62.5012 21.6929C62.546 21.439 62.5905 21.1851 62.635 20.9312C62.7048 20.533 62.7749 20.134 62.845 19.7358C62.9468 19.157 63.0486 18.5775 63.1497 17.9985C63.1611 17.9329 63.1724 17.8669 63.1838 17.8013C63.2017 17.6994 63.2198 17.5975 63.2375 17.4956C63.244 17.4585 63.2506 17.4213 63.2571 17.3843C63.2659 17.3338 63.2747 17.2834 63.2834 17.2329C63.2883 17.2049 63.2931 17.1768 63.2981 17.1479C63.3771 16.6732 63.3924 16.1768 63.1243 15.7603C63.1155 15.7465 63.1069 15.7325 63.0979 15.7183C62.951 15.5172 62.6778 15.4277 62.4446 15.3765C62.3988 15.3695 62.3541 15.3659 62.3079 15.3638C62.28 15.362 62.2796 15.3617 62.2512 15.3599C61.5428 15.3359 60.8906 15.6072 60.3762 16.0845C60.3502 16.109 60.3501 16.1092 60.3235 16.1343C60.3097 16.1466 60.2957 16.1587 60.2815 16.1714C59.9549 16.4748 59.7395 16.8959 59.5725 17.3022C59.5634 17.3241 59.5536 17.3462 59.5442 17.3687C59.3739 17.7981 59.2926 18.2579 59.2161 18.7114C59.2063 18.768 59.1965 18.8248 59.1868 18.8813C59.1561 19.0599 59.1261 19.2388 59.0959 19.4175C59.0832 19.493 59.0697 19.5685 59.0569 19.644C58.9537 20.2525 58.8515 20.8616 58.7493 21.4702C58.6958 21.7884 58.6427 22.1071 58.5891 22.4253C58.5678 22.552 58.5459 22.6794 58.5247 22.8062C58.5115 22.8846 58.4988 22.9631 58.4856 23.0415C58.4796 23.0773 58.473 23.1131 58.467 23.1489C58.4509 23.2455 58.434 23.3425 58.4172 23.439C58.4087 23.4889 58.4008 23.5394 58.3928 23.5894C58.3872 23.6225 58.3818 23.6558 58.3762 23.689C58.3714 23.7185 58.3665 23.7484 58.3616 23.7788C58.3369 23.8699 58.3066 23.9279 58.2463 24.0005C58.1674 24.0445 58.1004 24.0529 58.011 24.0532H57.8635C57.8232 24.0535 57.8226 24.054 57.7815 24.0542C57.6928 24.0546 57.6036 24.0541 57.5149 24.0542C57.4534 24.0543 57.3918 24.055 57.3303 24.0552C57.2009 24.0555 57.0711 24.0552 56.9417 24.0552C56.7923 24.0551 56.6428 24.0564 56.4934 24.0571C56.3494 24.0578 56.2048 24.0572 56.0608 24.0571C55.9997 24.0572 55.9383 24.0577 55.8772 24.0581C55.7917 24.0586 55.7058 24.0584 55.6204 24.0581C55.5952 24.0584 55.5701 24.0588 55.5442 24.0591C55.404 24.0579 55.3172 24.0502 55.2122 23.9536C55.1617 23.8023 55.1885 23.6391 55.2161 23.4849C55.2206 23.4582 55.2212 23.4582 55.2258 23.4312C55.236 23.372 55.2457 23.3126 55.2561 23.2534C55.2635 23.2105 55.2712 23.1674 55.2786 23.1245C55.2988 23.007 55.3196 22.8894 55.3401 22.772C55.362 22.6462 55.3838 22.5199 55.4055 22.394C55.4429 22.1776 55.4803 21.9611 55.5178 21.7446C55.572 21.4325 55.626 21.1203 55.6799 20.8081C55.76 20.3444 55.8399 19.8802 55.9202 19.4165C56.0282 18.7927 56.136 18.1683 56.2434 17.5444C56.2554 17.4749 56.2676 17.405 56.2795 17.3354C56.3105 17.1558 56.3414 16.9761 56.3723 16.7964C56.4189 16.5257 56.4653 16.2546 56.512 15.9839C56.5187 15.9445 56.5257 15.9051 56.5325 15.8657C56.5683 15.658 56.6039 15.4503 56.6399 15.2427C56.6524 15.1705 56.6655 15.0981 56.678 15.0259C56.681 15.0082 56.6836 14.9904 56.6868 14.9722C56.7287 14.7298 56.77 14.4872 56.8108 14.2446C56.8331 14.1119 56.8556 13.9789 56.8782 13.8462C56.8963 13.7395 56.9143 13.6326 56.9319 13.5259C56.9427 13.4608 56.9539 13.3956 56.9651 13.3306C56.9726 13.2864 56.9804 13.242 56.9875 13.1978C57.0379 12.9086 57.0374 12.9083 57.1682 12.811C57.2389 12.7901 57.3035 12.79 57.3772 12.7896C57.3929 12.7894 57.4089 12.7887 57.425 12.7886C57.4768 12.7881 57.5286 12.7886 57.5803 12.7886C57.6163 12.7884 57.6527 12.7878 57.6887 12.7876C57.7644 12.7873 57.8406 12.7876 57.9163 12.7876C58.0132 12.7876 58.1104 12.7874 58.2073 12.7866C58.2818 12.7861 58.3564 12.7856 58.4309 12.7856C58.4666 12.7856 58.5027 12.785 58.5383 12.7847H58.7747C58.8685 12.7985 58.9197 12.8306 58.9934 12.8892C59.02 12.9338 59.0196 12.9344 59.0325 12.9819C59.0376 13.0002 59.0428 13.0188 59.0481 13.0376C59.0825 13.1811 59.116 13.3249 59.1467 13.4692C59.1804 13.6173 59.2176 13.7532 59.3196 13.8696C59.4116 13.9105 59.4504 13.8964 59.5442 13.8608C59.6522 13.801 59.749 13.7257 59.8469 13.6509C60.2835 13.3178 60.7415 13.0366 61.2571 12.8433C61.2741 12.8368 61.2913 12.8304 61.3088 12.8237C61.6033 12.7141 61.9055 12.6436 62.2141 12.5864C62.231 12.5833 62.2484 12.5799 62.2659 12.5767ZM11.5549 7.81494C11.6389 7.82433 11.6823 7.84367 11.7493 7.89404C11.8087 7.97373 11.8311 8.04159 11.845 8.13916C11.8487 8.16448 11.8519 8.19022 11.8557 8.21631C11.8595 8.24366 11.8635 8.27114 11.8674 8.29932C11.8717 8.32811 11.8758 8.35754 11.8801 8.38721C11.8937 8.47951 11.907 8.57219 11.9202 8.66455C11.9331 8.75494 11.946 8.8457 11.9592 8.93604C11.9674 8.99202 11.9758 9.04797 11.9836 9.104C12.0636 9.65111 12.1962 10.1914 12.3196 10.73C12.3383 10.812 12.3575 10.8941 12.3762 10.9761C12.4196 11.1662 12.4626 11.3572 12.5061 11.5474C12.5613 11.7889 12.6171 12.0304 12.6721 12.272C12.6905 12.3527 12.7083 12.4335 12.7268 12.5142C13.0195 13.792 13.0197 13.7927 13.1038 14.3228C13.1093 14.3566 13.1148 14.3905 13.1204 14.4243C13.1348 14.5128 13.1493 14.6014 13.1633 14.6899C13.1722 14.7454 13.1808 14.8015 13.1897 14.8569C13.3191 15.6614 13.4417 16.4676 13.5374 17.2769C13.5451 17.3332 13.5551 17.3863 13.5706 17.4409C13.6352 17.4506 13.6355 17.4507 13.7102 17.4409C13.7978 17.3661 13.8473 17.295 13.8928 17.1899C13.9046 17.1632 13.9168 17.1364 13.929 17.1089C13.9351 17.0946 13.9412 17.0797 13.9475 17.0649C13.9674 17.019 13.9877 16.973 14.0081 16.9272C14.0376 16.8609 14.0676 16.7944 14.0969 16.728C14.2623 16.3535 14.4307 15.9805 14.6047 15.6099C14.6383 15.5383 14.6721 15.4668 14.7053 15.395C14.8868 15.003 15.0744 14.6138 15.2668 14.2271C15.2906 14.1792 15.3144 14.1314 15.3381 14.0835C15.4911 13.775 15.6529 13.4728 15.8264 13.1753C15.8696 13.1011 15.9127 13.0262 15.9553 12.9517C15.9695 12.9269 15.9837 12.902 15.9983 12.8765C16.1325 12.642 16.2662 12.4074 16.3977 12.1714C16.503 11.9824 16.6104 11.7944 16.72 11.6079C16.8525 11.3823 16.9801 11.1543 17.1067 10.9253C17.1957 10.7643 17.2857 10.6035 17.3772 10.4438C17.387 10.4267 17.3974 10.4097 17.4075 10.3921C17.4654 10.2909 17.5238 10.1893 17.5823 10.0884C17.7831 9.7397 17.966 9.38316 18.1448 9.02295C18.1746 8.96294 18.2046 8.90221 18.2346 8.84229C18.2641 8.78345 18.2932 8.72443 18.3225 8.66553C18.3428 8.62489 18.3637 8.58406 18.384 8.54346C18.4634 8.38338 18.5356 8.22158 18.6028 8.05615C18.647 7.96224 18.694 7.91067 18.7756 7.84717C18.8576 7.81991 18.9315 7.8207 19.0168 7.8208C19.0345 7.82073 19.0524 7.82087 19.0706 7.8208C19.1295 7.8206 19.1884 7.81986 19.2473 7.81982C19.2897 7.81972 19.3329 7.81995 19.3752 7.81982C19.4903 7.81952 19.6059 7.81895 19.7209 7.81885C19.7927 7.81878 19.865 7.81895 19.9368 7.81885C20.1616 7.81853 20.3867 7.81796 20.6116 7.81787C20.8713 7.81777 21.1311 7.81757 21.3909 7.81689C21.5916 7.81639 21.7927 7.81595 21.9934 7.81592H22.6917C22.7331 7.81594 22.7752 7.81517 22.8167 7.81494H23.0354C23.1362 7.81596 23.2014 7.8305 23.2805 7.89404C23.4031 8.07939 23.302 8.36896 23.2659 8.57275C23.2592 8.61106 23.253 8.64968 23.2463 8.68799C23.2282 8.79302 23.2091 8.89843 23.1907 9.00342C23.1708 9.11664 23.1517 9.23 23.1321 9.34326C23.0978 9.5405 23.063 9.73785 23.0286 9.93506C22.9778 10.2255 22.9267 10.5167 22.8762 10.8071C22.7985 11.254 22.7207 11.7011 22.6428 12.1479C22.5246 12.8262 22.4069 13.5047 22.2893 14.1831C22.2802 14.2355 22.2711 14.2879 22.262 14.3403C22.2256 14.5503 22.189 14.7603 22.1526 14.9702C22.061 15.4982 21.9698 16.0272 21.8782 16.5552C21.8504 16.7153 21.822 16.8755 21.7942 17.0356C21.7873 17.0752 21.7875 17.0754 21.7805 17.1157C21.7712 17.1697 21.7616 17.2239 21.7522 17.2778C21.738 17.3594 21.7244 17.4414 21.7102 17.5229C21.5471 18.4627 21.384 19.4025 21.2209 20.3423C21.167 20.653 21.1128 20.9642 21.0588 21.2749C21.0222 21.4861 20.9851 21.6975 20.9485 21.9087C20.9234 22.0532 20.8984 22.1978 20.8733 22.3423C20.8655 22.3872 20.8576 22.4321 20.8499 22.4771C20.8315 22.5827 20.8136 22.6888 20.7952 22.7944C20.7633 22.9773 20.7315 23.1601 20.7014 23.3433C20.6961 23.3751 20.6911 23.4071 20.6858 23.439C20.6763 23.4962 20.6675 23.5535 20.6584 23.6108C20.6114 23.8937 20.6105 23.8937 20.4915 24.0073C20.3724 24.0629 20.2659 24.0592 20.136 24.0581H19.593C19.4615 24.0582 19.33 24.0577 19.1985 24.0571C19.0465 24.0565 18.8944 24.0569 18.7424 24.0571C18.596 24.0574 18.4494 24.0565 18.303 24.0562C18.2407 24.056 18.1777 24.0561 18.1155 24.0562C18.0287 24.0562 17.9415 24.0557 17.8547 24.0552C17.8291 24.0553 17.803 24.056 17.7766 24.0562C17.6226 24.0546 17.5332 24.0413 17.4211 23.9292C17.3888 23.7946 17.3985 23.6652 17.4231 23.5308C17.4261 23.5131 17.4298 23.4953 17.4329 23.4771C17.443 23.4179 17.4536 23.3584 17.4641 23.2993C17.4715 23.2565 17.4782 23.2132 17.4856 23.1704C17.5057 23.0539 17.5266 22.9373 17.5471 22.8208C17.5688 22.6971 17.5902 22.5734 17.6116 22.4497C17.6528 22.2115 17.694 21.973 17.7356 21.7349C17.7834 21.4616 17.8307 21.1879 17.8782 20.9146C17.939 20.564 18.0007 20.2133 18.0618 19.8628C18.1597 19.3008 18.2568 18.7386 18.3528 18.1763C19.0165 14.2901 19.0164 14.2897 19.5618 12.6489C19.6005 12.5301 19.6296 12.4304 19.6155 12.3052L19.5686 12.2583C19.5123 12.2552 19.512 12.2555 19.4524 12.2817C19.3399 12.3984 19.2705 12.5346 19.1956 12.6772C19.1686 12.7278 19.1416 12.779 19.1145 12.8296C19.0941 12.8677 19.0934 12.8676 19.0725 12.9067C19.0104 13.0218 18.9467 13.1359 18.8821 13.2495C18.7901 13.4113 18.6983 13.5732 18.6077 13.7358C18.4731 13.9773 18.3355 14.2171 18.1956 14.4556C18.1032 14.6132 18.0126 14.7719 17.9231 14.9312C17.8079 15.1359 17.6903 15.3398 17.5715 15.5425C17.4659 15.7231 17.3617 15.9046 17.2581 16.0864C17.1424 16.2894 17.0255 16.4923 16.9075 16.6938C16.7901 16.8944 16.6739 17.0955 16.5588 17.2974C16.4378 17.5097 16.3168 17.7224 16.1946 17.9341C16.1803 17.9589 16.1654 17.9837 16.1506 18.0093C16.0786 18.1341 16.0068 18.259 15.9338 18.3833C15.7387 18.7166 15.5572 19.0549 15.3821 19.3989C15.3082 19.544 15.2315 19.6876 15.1555 19.8315C15.0759 19.9836 14.9995 20.1373 14.9241 20.2915C14.8926 20.3555 14.8618 20.4199 14.8303 20.4839C14.8095 20.5264 14.7884 20.5692 14.7678 20.6118C14.7388 20.6719 14.7094 20.7317 14.6799 20.7915C14.6714 20.8095 14.6624 20.8276 14.6536 20.8462C14.5962 20.9614 14.5396 21.0308 14.4338 21.105C14.3685 21.1268 14.3285 21.1311 14.261 21.1313C14.2293 21.1315 14.2288 21.1321 14.1965 21.1323H14.053C13.9723 21.1327 13.8914 21.1332 13.8108 21.1333C13.7547 21.1334 13.6979 21.1332 13.6418 21.1333C13.5243 21.1335 13.4068 21.1342 13.2893 21.1343C13.1387 21.1344 12.9878 21.1346 12.8372 21.1353C12.7214 21.1357 12.6053 21.1362 12.4895 21.1362C12.434 21.1363 12.378 21.1359 12.3225 21.1362C12.2448 21.1366 12.1669 21.1374 12.0891 21.1372C12.0548 21.1375 12.0546 21.1369 12.0198 21.1372C11.8965 21.1365 11.8087 21.1278 11.7024 21.0581C11.5853 20.9333 11.5784 20.778 11.5549 20.6138C11.5478 20.5673 11.5406 20.5206 11.5334 20.4741C11.5235 20.4088 11.5138 20.3432 11.5042 20.2778C11.369 19.3617 11.1892 18.4609 10.9788 17.5591C10.9491 17.4317 10.9203 17.3037 10.8909 17.1763C10.8427 16.9682 10.7936 16.7603 10.7454 16.5522C10.646 16.1238 10.5479 15.6948 10.4495 15.2661C10.4402 15.2257 10.4304 15.1854 10.4211 15.145C10.3044 14.6371 10.1911 14.1284 10.0872 13.6177C10.0251 13.3131 9.95857 13.0102 9.88403 12.7085L9.83325 12.5054C9.82294 12.4644 9.82326 12.4641 9.81274 12.4224C9.79009 12.355 9.76526 12.3115 9.71899 12.2583C9.66277 12.2609 9.66229 12.261 9.60181 12.2817C9.52522 12.3829 9.50683 12.48 9.49927 12.604C9.49786 12.6262 9.49682 12.6485 9.49536 12.6714C9.49389 12.6958 9.492 12.7205 9.49048 12.7456C9.48706 12.799 9.48417 12.8524 9.48071 12.9058C9.47889 12.9341 9.47673 12.9625 9.47485 12.9917C9.41177 13.9593 9.30873 14.9218 9.18384 15.8833C9.17802 15.9282 9.17199 15.9731 9.16626 16.0181C8.97557 17.5046 8.69858 18.9826 8.44556 20.4595C8.40987 20.6678 8.37469 20.8762 8.33911 21.0845C8.29973 21.315 8.2604 21.5463 8.22095 21.7769C8.20454 21.8728 8.18753 21.969 8.17114 22.0649C8.13014 22.3048 8.08878 22.5449 8.04712 22.7847C8.02484 22.9131 8.00323 23.0418 7.98169 23.1704C7.96739 23.2554 7.9524 23.3403 7.93774 23.4253C7.93093 23.4652 7.92477 23.5055 7.91821 23.5454C7.90922 23.6001 7.89943 23.6549 7.88989 23.7095C7.8874 23.7253 7.88465 23.741 7.88208 23.7573C7.86333 23.861 7.83353 23.9257 7.75806 23.9995C7.67775 24.0424 7.61104 24.052 7.52075 24.0522C7.49705 24.0524 7.47291 24.0531 7.44849 24.0532C7.42283 24.0532 7.3968 24.0523 7.37036 24.0522C7.34311 24.0524 7.31543 24.0531 7.28735 24.0532H6.43188C6.27986 24.0531 6.12785 24.0537 5.97583 24.0542C5.84503 24.0546 5.71405 24.0543 5.58325 24.0542C5.50517 24.0542 5.42696 24.0549 5.34888 24.0552H5.01001C4.79012 24.0537 4.78971 24.0538 4.70044 23.9761C4.59653 23.7979 4.67257 23.5653 4.7063 23.3755C4.71206 23.3424 4.71813 23.309 4.72388 23.2759C4.73642 23.2038 4.74926 23.1312 4.76196 23.0591C4.78281 22.9408 4.80286 22.8219 4.82349 22.7036C4.85393 22.5291 4.88468 22.3547 4.91528 22.1802C4.96526 21.8952 5.01496 21.6097 5.0647 21.3247C5.07337 21.275 5.08239 21.225 5.09106 21.1753C5.1043 21.0995 5.11787 21.0236 5.1311 20.9478C5.15848 20.7909 5.18573 20.6339 5.21313 20.4771C5.35639 19.657 5.49873 18.8364 5.64087 18.0161C5.6459 17.9871 5.65131 17.9581 5.65649 17.9282C5.70317 17.6588 5.74948 17.389 5.79614 17.1196C5.86984 16.6942 5.94404 16.2687 6.01782 15.8433C6.02307 15.813 6.02804 15.7826 6.03345 15.7515C6.07075 15.5363 6.10844 15.3211 6.14575 15.106C6.18592 14.8744 6.22571 14.6422 6.26587 14.4106C6.27392 14.3642 6.28223 14.3174 6.29028 14.271C6.35073 13.9224 6.41054 13.5737 6.47095 13.2251C6.47512 13.201 6.47547 13.2009 6.47974 13.1763C6.49382 13.095 6.50765 13.0134 6.52173 12.9321C6.62608 12.3299 6.73067 11.7277 6.83521 11.1255C6.89213 10.7975 6.94932 10.4691 7.0061 10.1411C7.04454 9.91917 7.08277 9.69702 7.12134 9.4751C7.14352 9.34744 7.16568 9.21899 7.18774 9.09131C7.20789 8.97471 7.22895 8.85827 7.24927 8.7417C7.25659 8.69959 7.2635 8.65687 7.27075 8.61475C7.38504 7.95095 7.38516 7.95089 7.52466 7.84717C7.55883 7.83008 7.59106 7.82316 7.62427 7.8208H7.78052C7.83618 7.8206 7.89184 7.81986 7.94751 7.81982C7.98718 7.81972 8.02698 7.81995 8.06665 7.81982C8.17506 7.81952 8.28441 7.81895 8.39282 7.81885C8.46037 7.81878 8.5284 7.81895 8.59595 7.81885C8.80749 7.81853 9.01917 7.81796 9.23071 7.81787C9.47518 7.81777 9.71964 7.81757 9.96411 7.81689C10.153 7.81639 10.3426 7.81595 10.5315 7.81592H11.1887C11.2275 7.81593 11.2662 7.81517 11.3049 7.81494H11.5549ZM49.7092 7.81104C49.7931 7.81218 49.8399 7.8221 49.9114 7.86768C49.9593 7.91706 49.9589 7.91745 49.9836 7.97705C49.9789 8.2334 49.8036 8.50478 49.6965 8.73389C49.6683 8.79457 49.6407 8.8558 49.6125 8.9165C49.5934 8.95785 49.5742 8.99919 49.5549 9.04053C49.4669 9.22995 49.3798 9.41977 49.2932 9.60986C49.2477 9.70974 49.2012 9.80988 49.1555 9.90967C49.1133 10.0018 49.0714 10.0947 49.0295 10.187C49.0112 10.2269 48.9932 10.2672 48.9749 10.3071C48.9673 10.3241 48.9592 10.3414 48.9514 10.3589C48.9049 10.4586 48.8527 10.5296 48.7688 10.6011C48.698 10.6247 48.6504 10.6282 48.5764 10.6284H48.3225C48.2395 10.6287 48.1565 10.6292 48.0735 10.6294C47.9839 10.6296 47.8935 10.6301 47.804 10.6304C47.6488 10.6309 47.4933 10.631 47.3381 10.6313C47.1139 10.6319 46.8896 10.6326 46.6653 10.6333C46.3012 10.6344 45.9366 10.6353 45.5725 10.6362C45.2188 10.6371 44.8647 10.6381 44.511 10.6392C44.4892 10.6392 44.467 10.6391 44.4446 10.6392C44.3352 10.6395 44.2258 10.6398 44.1165 10.6401C43.2087 10.6428 42.3006 10.6456 41.3928 10.6479C41.3873 10.6803 41.3877 10.6806 41.3821 10.7134C41.2919 11.2403 41.2018 11.7676 41.1116 12.2944C41.0679 12.5492 41.0243 12.8043 40.9807 13.0591C40.9427 13.2811 40.9045 13.5031 40.8665 13.7251C40.8463 13.8427 40.826 13.961 40.8059 14.0786C40.787 14.1891 40.7682 14.3001 40.7493 14.4106C40.7423 14.4511 40.7347 14.4913 40.7278 14.5317C40.7183 14.5872 40.709 14.6433 40.6995 14.6987C40.6967 14.7147 40.6945 14.7311 40.6917 14.7476C40.6777 14.8285 40.6623 14.9093 40.6458 14.9897C40.665 14.9898 40.6655 14.9897 40.6848 14.9897C41.4509 14.9916 42.2175 14.9941 42.9836 14.9966C43.0756 14.9969 43.168 14.9963 43.26 14.9966C43.2783 14.9966 43.2969 14.9975 43.3157 14.9976C43.6121 14.9985 43.9089 14.9988 44.2053 14.9995C44.5095 15.0002 44.8142 15.0014 45.1184 15.0024C45.3059 15.0031 45.4934 15.0031 45.6809 15.0034C45.8249 15.0037 45.9695 15.0048 46.1135 15.0054C46.1724 15.0056 46.2314 15.0053 46.2903 15.0054C46.3709 15.0054 46.4519 15.0059 46.5325 15.0063C46.5557 15.0063 46.5789 15.0064 46.6028 15.0063C46.894 15.0087 46.8943 15.0089 46.9924 15.1021C47.103 15.3241 46.9808 15.6896 46.9397 15.9233C46.9315 15.9706 46.9234 16.0186 46.9153 16.0659C46.8983 16.1644 46.8808 16.2633 46.8635 16.3618C46.8414 16.4877 46.8196 16.6137 46.7981 16.7397C46.7814 16.8371 46.7653 16.9345 46.7483 17.0317C46.7402 17.0781 46.7318 17.125 46.7239 17.1714C46.7128 17.2364 46.7013 17.3017 46.6897 17.3667C46.685 17.3951 46.6848 17.3953 46.6799 17.4243C46.6532 17.5707 46.6218 17.7187 46.4944 17.8071C46.3803 17.8489 46.277 17.8462 46.1565 17.8452C46.1308 17.8453 46.1048 17.8461 46.0784 17.8462C45.9922 17.8463 45.9058 17.8456 45.8196 17.8452C45.7577 17.8452 45.6949 17.8452 45.6331 17.8452C45.5 17.8453 45.3667 17.8446 45.2336 17.8442C45.0411 17.8437 44.8481 17.8443 44.6555 17.8442C44.3431 17.8441 44.0304 17.8429 43.718 17.8423C43.4146 17.8416 43.1112 17.8416 42.8079 17.8413C42.7893 17.8413 42.7703 17.8413 42.7512 17.8413C42.6573 17.8412 42.5629 17.8404 42.469 17.8403C41.6902 17.8396 40.9109 17.839 40.1321 17.8374C40.1303 17.8608 40.131 17.8613 40.1292 17.8853C40.1164 18.0379 40.0961 18.1876 40.0696 18.3384C40.0656 18.3615 40.062 18.3849 40.0579 18.4087C40.0446 18.4855 40.0303 18.5623 40.0168 18.6392C40.0073 18.6945 39.9981 18.7499 39.9885 18.8052C39.9653 18.9396 39.9416 19.0741 39.9182 19.2085C39.8992 19.3178 39.8805 19.4273 39.8616 19.5366C39.8589 19.5521 39.8565 19.5676 39.8538 19.5835C39.8483 19.6152 39.8427 19.6475 39.8372 19.6792C39.7858 19.9756 39.7335 20.2724 39.6819 20.5688C39.6377 20.8229 39.5941 21.0775 39.55 21.3315C39.4988 21.6271 39.4471 21.9228 39.3958 22.2183C39.3903 22.2497 39.3846 22.2815 39.3792 22.313C39.3765 22.3284 39.3741 22.344 39.3713 22.3599C39.3524 22.4689 39.3336 22.578 39.3147 22.687C39.2893 22.8338 39.2641 22.9807 39.2385 23.1274C39.2291 23.1813 39.2195 23.2357 39.2102 23.2896C39.1975 23.3631 39.184 23.4367 39.1711 23.5103C39.1675 23.5315 39.1642 23.5528 39.1604 23.5747C39.1014 23.9098 39.1011 23.9102 38.9651 24.0229C38.8967 24.0457 38.8519 24.049 38.7805 24.0493C38.757 24.0495 38.7335 24.0501 38.7092 24.0503H38.5481C38.4575 24.0508 38.3663 24.051 38.2756 24.0513C38.2444 24.0514 38.2131 24.0521 38.1819 24.0522C38.0352 24.0527 37.8881 24.053 37.7415 24.0532C37.5723 24.0535 37.4028 24.0533 37.2336 24.0542C37.1029 24.0549 36.9718 24.0561 36.8411 24.0562C36.763 24.0562 36.6848 24.0566 36.6067 24.0571C36.5195 24.0577 36.4321 24.0573 36.345 24.0571C36.3193 24.0574 36.2933 24.0578 36.2668 24.0581C36.1248 24.0571 36.0383 24.0493 35.9309 23.9526C35.8475 23.7857 35.9265 23.5304 35.9573 23.3569C35.9627 23.3255 35.9685 23.2936 35.9739 23.2622C35.9888 23.1758 36.0036 23.0888 36.0188 23.0024C36.0352 22.909 36.0515 22.8156 36.0676 22.7222C36.0958 22.5592 36.1241 22.3958 36.1526 22.2329C36.1946 21.9921 36.2368 21.7511 36.2786 21.5103C36.3474 21.1135 36.4165 20.7166 36.4856 20.3198C36.5767 19.7968 36.6673 19.2736 36.7581 18.7505C36.7928 18.55 36.8278 18.3494 36.8625 18.1489C36.8664 18.1267 36.8703 18.1044 36.8743 18.0815C36.9334 17.7407 36.9928 17.3999 37.052 17.0591C37.056 17.0362 37.0596 17.0133 37.0637 16.9897C37.084 16.8729 37.1049 16.756 37.1252 16.6392C37.2796 15.7511 37.434 14.8622 37.5881 13.9741C37.5954 13.9322 37.5954 13.9319 37.6028 13.8892C37.6902 13.3851 37.778 12.8805 37.8655 12.3765C37.8746 12.3241 37.8837 12.2717 37.8928 12.2192C37.9152 12.0901 37.9368 11.9607 37.9592 11.8315C38.0026 11.5816 38.0466 11.3315 38.0901 11.0815C38.107 10.9841 38.1239 10.886 38.1409 10.7886C38.147 10.7532 38.1472 10.7527 38.1536 10.7163C38.2103 10.39 38.2657 10.0633 38.3215 9.73682C38.3518 9.55979 38.3829 9.38256 38.4133 9.20557C38.4378 9.06309 38.4624 8.92037 38.4866 8.77783C38.5014 8.69089 38.5165 8.604 38.5315 8.51709C38.5384 8.47693 38.5453 8.43619 38.552 8.396C38.5612 8.34132 38.5698 8.28655 38.5793 8.23193C38.5819 8.21616 38.5845 8.20033 38.5872 8.18408C38.61 8.05613 38.6501 7.93041 38.7551 7.84717C38.8398 7.81893 38.9179 7.82063 39.0061 7.8208H39.2512C39.2966 7.82072 39.3425 7.81992 39.3879 7.81982C39.5129 7.81959 39.6379 7.81989 39.7629 7.81982C39.8978 7.81973 40.0333 7.81905 40.1682 7.81885C40.4941 7.81839 40.8199 7.81808 41.1458 7.81787C41.2991 7.81777 41.4524 7.81799 41.6057 7.81787C42.1151 7.81747 42.6246 7.81706 43.134 7.81689H43.5813C44.1142 7.81671 44.6471 7.8157 45.1799 7.81494C45.7433 7.81414 46.307 7.81404 46.8704 7.81396C47.1776 7.81391 47.485 7.81358 47.7922 7.81299C48.0536 7.81248 48.315 7.81276 48.5764 7.81299C48.7098 7.81309 48.8434 7.81246 48.9768 7.81201H49.6565C49.6738 7.81177 49.6914 7.81128 49.7092 7.81104ZM54.4358 12.7886C54.5884 12.7897 54.5888 12.7906 54.6516 12.8423C54.7193 12.9623 54.7278 13.0368 54.7063 13.1753C54.7039 13.1913 54.7019 13.2077 54.6995 13.2241C54.6917 13.2755 54.6836 13.3272 54.675 13.3784C54.6698 13.4115 54.6637 13.4449 54.6584 13.478C54.641 13.5861 54.6225 13.6944 54.6038 13.8022C54.5966 13.8437 54.5894 13.8858 54.5823 13.9272C54.5629 14.0401 54.5432 14.1532 54.5237 14.2661C54.5026 14.3882 54.4812 14.5102 54.4602 14.6323C54.4191 14.8712 54.3784 15.1103 54.3372 15.3491C54.289 15.6277 54.2407 15.9065 54.1926 16.1851C54.1018 16.712 54.0112 17.2392 53.9202 17.7661C53.8425 18.2159 53.7644 18.6659 53.6868 19.1157C53.5824 19.7205 53.4777 20.3254 53.3733 20.9302C53.3401 21.1222 53.3078 21.3143 53.2747 21.5063C53.2342 21.7407 53.1931 21.9751 53.1526 22.2095C53.132 22.3288 53.1116 22.4485 53.0911 22.5679C53.0523 22.7928 53.0134 23.0179 52.9739 23.2427C52.9555 23.347 52.9368 23.4517 52.9192 23.5562C52.9114 23.6007 52.9036 23.6454 52.8958 23.6899C52.8927 23.7085 52.8901 23.7274 52.887 23.7466C52.8675 23.8539 52.8389 23.9226 52.761 23.9995C52.6892 24.0434 52.6346 24.052 52.551 24.0522H52.3215C52.2327 24.0526 52.1438 24.0533 52.0549 24.0532H51.4797C51.33 24.0531 51.1803 24.0537 51.0305 24.0542H50.1565C50.1311 24.0544 50.1055 24.055 50.0793 24.0552C49.926 24.0541 49.8374 24.0408 49.7258 23.9292C49.6799 23.7231 49.7292 23.5239 49.7659 23.3198C49.773 23.2792 49.7793 23.2384 49.7864 23.1978C49.8057 23.0867 49.8262 22.9757 49.8459 22.8647C49.867 22.746 49.8877 22.6271 49.9084 22.5083C49.9441 22.3043 49.9798 22.0999 50.0159 21.896C50.0675 21.604 50.119 21.3121 50.1702 21.02C50.2456 20.5898 50.321 20.1592 50.3967 19.729C50.5015 19.1335 50.6054 18.5376 50.7092 17.9419C50.7165 17.9003 50.7235 17.8585 50.7307 17.8169C50.7586 17.657 50.7868 17.4973 50.8147 17.3374C50.8811 16.9561 50.9473 16.5742 51.0139 16.1929C51.0275 16.1152 51.0414 16.0372 51.0549 15.9595C51.0788 15.8228 51.1024 15.686 51.1262 15.5493C51.1043 15.5495 51.104 15.5501 51.0813 15.5503C50.9257 15.5518 50.7701 15.5525 50.6145 15.5532C50.5566 15.5536 50.4986 15.5546 50.4407 15.5552C50.3572 15.556 50.2732 15.5558 50.1897 15.5562C50.151 15.5567 50.1509 15.5566 50.1116 15.5571C50.0873 15.5571 50.0624 15.5571 50.0374 15.5571C50.0161 15.5573 49.9948 15.5579 49.9729 15.5581C49.8995 15.5478 49.8559 15.5222 49.7961 15.479C49.6686 15.2496 49.8072 14.853 49.8489 14.605C49.8565 14.5591 49.8647 14.5132 49.8723 14.4673C49.8883 14.3716 49.904 14.2758 49.9202 14.1802C49.9408 14.0578 49.9615 13.9354 49.9817 13.813C49.9973 13.7184 50.0126 13.6233 50.0286 13.5288C50.0361 13.4839 50.0436 13.439 50.051 13.394C50.0614 13.331 50.0725 13.2676 50.0833 13.2046C50.0862 13.1862 50.089 13.1678 50.092 13.1489C50.1152 13.016 50.1562 12.9079 50.2629 12.8188C50.3441 12.7918 50.4168 12.7923 50.5012 12.7925C50.5185 12.7924 50.5362 12.7916 50.554 12.7915H51.4729C51.6946 12.7913 51.9163 12.7905 52.1379 12.7905C52.367 12.7905 52.5964 12.7909 52.8254 12.7905C53.022 12.7902 53.2187 12.7895 53.4153 12.7896H54.387C54.403 12.7894 54.4193 12.7887 54.4358 12.7886ZM54.3518 6.97119C54.4419 6.98909 54.4982 7.03388 54.5579 7.10107C54.9428 7.78038 54.8727 8.74237 54.675 9.46436C54.5077 10.0446 54.2294 10.5638 53.8743 11.0503C53.8611 11.0684 53.8478 11.0864 53.8342 11.105C53.5915 11.4308 53.5915 11.4315 53.4133 11.4897C53.2472 11.5099 53.1276 11.4988 52.9934 11.396C52.9312 11.3175 52.9354 11.2363 52.9465 11.1392C52.9976 11.0068 53.0865 10.8974 53.1731 10.7866C53.767 10.0263 54.1056 9.10498 53.9895 8.13037C53.9571 7.92377 53.8978 7.7287 53.8284 7.53174C53.7949 7.42439 53.7988 7.34481 53.8352 7.23975C53.9439 7.07491 54.0872 6.97901 54.2874 6.97412C54.3085 6.97319 54.33 6.97215 54.3518 6.97119ZM52.6399 7.63818C52.754 7.48244 52.9344 7.44754 53.1106 7.49658C53.2051 7.59207 53.2533 7.68256 53.2903 7.81201C53.2975 7.83642 53.2976 7.83676 53.3049 7.86182C53.5217 8.62702 53.363 9.45955 52.9875 10.1479C52.5602 10.9053 52.5598 10.9054 52.2815 10.9927C52.1755 11.0088 52.1208 11.005 52.0237 10.9556C51.9491 10.8887 51.9453 10.873 51.9358 10.772C51.9373 10.6629 51.9835 10.5934 52.05 10.5103C52.0716 10.4816 52.0939 10.453 52.1155 10.4243C52.1361 10.3977 52.1564 10.3708 52.177 10.3442C52.5025 9.91456 52.729 9.36735 52.761 8.82666C52.7622 8.80838 52.7627 8.78983 52.7639 8.771C52.7722 8.52927 52.7283 8.27742 52.6516 8.04834C52.6099 7.91754 52.5829 7.76802 52.6399 7.63818ZM51.9426 7.96533C52.0099 8.03757 52.035 8.11293 52.0627 8.20654C52.0705 8.23217 52.0782 8.25827 52.0862 8.28467C52.2407 8.87089 52.0778 9.48176 51.7883 9.99756C51.728 10.1002 51.6605 10.1974 51.5901 10.2935C51.5787 10.3093 51.5667 10.325 51.5549 10.3413C51.4847 10.4339 51.4254 10.4925 51.3127 10.5327C51.2443 10.5371 51.1946 10.5241 51.1262 10.5093C51.0796 10.4626 51.0793 10.4624 51.0676 10.3794C51.0711 10.2491 51.1435 10.1663 51.22 10.0659C51.5318 9.65299 51.7186 9.14744 51.6458 8.62451C51.6285 8.52763 51.605 8.43376 51.5774 8.33936C51.5505 8.24503 51.5348 8.17671 51.5696 8.08154C51.664 7.95562 51.7934 7.91901 51.9426 7.96533Z" fill="#676767"/>
</svg>
