<svg xmlns="http://www.w3.org/2000/svg" width="72" height="20" fill="none"><path fill="#676767" d="M65.352 6.85c1.608 0 2.257 1.119 2.257 1.888h-4.515c0-.779.657-1.889 2.258-1.889Zm1.894 5.343c-.3.584-.989.979-1.877.979-1.679 0-2.342-1.197-2.36-2.263h8.338c.023-.15.084-.577.084-.91 0-3.765-2.59-5.89-6.092-5.89-3.69 0-6.272 2.125-6.272 5.89 0 3.794 2.581 5.892 6.294 5.892 3.65 0 5.366-2.01 5.824-3.698h-3.939ZM7.258 12.508c-1.497 0-2.56-1.073-2.56-2.499 0-1.358.998-2.498 2.56-2.498 1.563 0 2.56 1.147 2.56 2.498 0 1.374-1.011 2.499-2.56 2.499Zm1.12-8.286c-1.642 0-3.051.725-3.778 1.577l-.003-1.355H.847V20h3.866v-5.57c.907.977 2.17 1.348 3.447 1.348 3.83 0 5.607-2.895 5.607-5.778 0-3.558-2.282-5.778-5.388-5.778ZM18.924 0H15.04v15.556h3.883V0ZM28.291 4.444v5.778c0 .876-.12 1.301-.479 1.726-.347.41-.89.604-1.493.604-.603 0-1.148-.194-1.494-.604-.36-.425-.48-.85-.48-1.726V4.444h-3.867v6.121c0 1.721.264 2.845 1.09 3.8.874 1.009 2.208 1.41 3.515 1.41 1.53 0 2.59-.575 3.323-1.422l.003 1.202h3.75V4.445h-3.868ZM44.769 4.444h-2.643L39.213 7.41 36.3 4.444h-2.643v2.643L36.622 10l-2.965 2.912v2.643H36.3l2.913-2.964 2.913 2.964h2.643v-2.643L41.804 10l2.965-2.913V4.444ZM51.912 6.85c1.608 0 2.257 1.119 2.257 1.888h-4.515c0-.779.656-1.889 2.258-1.889Zm1.894 5.343c-.3.584-.989.979-1.878.979-1.678 0-2.342-1.197-2.36-2.263h8.338c.024-.15.085-.577.085-.91 0-3.765-2.59-5.89-6.092-5.89-3.691 0-6.272 2.125-6.272 5.89 0 3.794 2.58 5.892 6.294 5.892 3.65 0 5.366-2.01 5.824-3.698h-3.94Z"/></svg>