<svg xmlns="http://www.w3.org/2000/svg" width="67" height="32" fill="none"><path fill="#676767" d="M64.06 25.577v-3.424h1.993v9.61H64.11l-.059-.71c-.523.285-1.037.725-1.627.852-1.378.297-2.584-.361-3.12-1.64-.558-1.327-.562-2.687.027-4.019.81-1.833 3.351-2.413 4.73-.667v-.002Zm-3.191 2.625c0 .482.218 1.07.357 1.29.238.538.687.872 1.34.844.658-.029 1.059-.407 1.248-.965.128-.377.217-.784.221-1.18.015-1.172-.645-2.04-1.504-2.06-.918-.02-1.568.818-1.662 2.07v.001ZM15.238 27.284c.064-.626-.013-1.098-.716-1.262-.747-.173-1.345.044-1.682.58-.102.163-.325.329-.514.357-.365.056-.748.019-1.123.009-.094-.003-.189-.045-.28-.067.172-1.488.978-2.24 2.674-2.371a7.48 7.48 0 0 1 2.08.154c1.06.224 1.632 1.016 1.66 2.187.03 1.141-.007 2.285.017 3.425.01.466.098.932.15 1.406-1.436.322-1.923.176-2.212-.746-.697.706-1.513 1.078-2.54 1.006-1.105-.077-1.902-.69-2.045-1.643-.193-1.296.256-2.162 1.377-2.527.491-.16 1.017-.228 1.533-.311.514-.082 1.034-.129 1.62-.2l.001.003Zm.075 1.207c-.664.119-1.28.186-1.868.349-.479.133-.937.48-.712.982.135.301.643.618.996.633 1.015.042 1.59-.366 1.585-1.964ZM50.772 27.295c-.02-.666-.113-1.183-.866-1.288-.69-.094-1.298-.042-1.624.68-.06.13-.27.264-.42.275-.467.036-.94.013-1.406.013-.052-1.19.596-2.104 1.822-2.29.94-.145 1.944-.12 2.886.024 1.02.154 1.597.967 1.635 2.04.037 1.118.004 2.238.03 3.357.012.537.088 1.074.137 1.62-1.563.268-1.89.168-2.193-.784-.71.746-1.55 1.105-2.595 1.019-1.073-.089-1.852-.686-2.002-1.61-.206-1.264.265-2.236 1.368-2.54.856-.237 1.76-.312 2.646-.456.168-.027.34-.034.583-.059l-.001-.001Zm-.042 1.175c-.707.157-1.39.23-1.992.478-.275.113-.583.608-.529.863.056.266.504.598.825.65 1.181.19 1.832-.565 1.697-1.991h-.002ZM21.239 31.744h-1.972V24.75h1.918l.078.62c.65-.282 1.28-.704 1.967-.821 1.522-.262 2.734.773 2.79 2.343.058 1.592.013 3.187.013 4.84h-2.03c0-1.026.003-2.064 0-3.105a31.465 31.465 0 0 0-.029-1.356c-.026-.577-.247-1.027-.923-1.116-.679-.088-1.265.084-1.554.716a2.855 2.855 0 0 0-.246 1.098c-.03 1.234-.01 2.47-.01 3.772l-.002.002ZM27.182 29.481c.522 0 1.046-.025 1.565.015.17.013.378.166.478.311.463.676 1.752.946 2.454.466.141-.096.299-.323.269-.453-.04-.17-.227-.376-.403-.44-.836-.307-1.69-.57-2.537-.85-.867-.286-1.617-.678-1.635-1.7-.015-.908.615-1.699 1.677-2.044 1.236-.403 2.457-.393 3.601.28.682.401 1.017 1.013 1.073 1.863-.553 0-1.07.016-1.585-.011-.136-.007-.306-.123-.39-.235-.453-.608-1.4-.844-2.085-.461-.167.094-.33.306-.352.481-.014.1.237.29.403.345.942.308 1.9.571 2.841.882 1.508.495 1.879 1.926.813 3.066-1.157 1.24-4.282 1.372-5.492.17-.403-.4-.601-.987-.893-1.489l.195-.193.003-.003ZM44.984 29.181c-.302 1.865-1.474 2.791-3.387 2.79-1.889-.002-3.112-.983-3.389-2.675-.165-1.008-.138-1.987.29-2.933.57-1.259 1.895-1.953 3.488-1.84 1.57.111 2.61.85 2.952 2.103.042.157.042.326.073.595-.574 0-1.113.028-1.645-.018-.162-.014-.385-.202-.444-.358-.204-.543-.569-.806-1.176-.8-.618.004-1.064.262-1.302.793-.42.937-.462 1.927-.024 2.834.18.368.755.717 1.192.773.352.044.984-.286 1.108-.59.258-.64.664-.727 1.255-.677.318.028.641.005 1.01.005v-.002ZM1.709 26.066l-.885-.067v-1.24l.86-.12v-1.737H3.73v1.725l1.252.127v1.23l-1.192.088c0 1.333-.045 2.68.048 4.017.015.203.675.366 1.13.594v1.235c-.69 0-1.363.063-2.016-.019-.615-.075-1.057-.474-1.105-1.093-.078-.992-.104-1.988-.135-2.982-.018-.568-.003-1.135-.003-1.76v.002ZM56.28 31.756h-1.954v-7.02h1.904l.094.854c.632-.671 1.248-1.22 2.27-1.039v1.868c-.056.024-.098.057-.142.059-1.84.105-2.173.441-2.173 2.206v3.072ZM8.103 25.612c.652-.706 1.261-1.26 2.281-1.04V26.4c-.06.033-.1.073-.142.075-1.796.07-2.193.467-2.197 2.212-.003.997 0 1.996 0 3.05H6.109v-6.983h1.874l.119.858h.001ZM37.183 30.355c-.001.585-.593 1.137-1.202 1.121-.607-.015-1.166-.594-1.15-1.191.014-.615.502-1.084 1.137-1.092.712-.009 1.218.474 1.215 1.162ZM43.895 9.137c.093 3.759-1.29 6.82-4.471 8.86-3.527 2.26-7.218 2.26-10.744-.003-3.18-2.041-4.564-5.1-4.467-8.867h2.55c-.143 2.418.623 4.472 2.412 6.096 1.553 1.41 3.42 2.014 5.502 1.842 3.973-.329 7.001-3.81 6.653-7.927h2.565Z"/><path fill="#676767" d="M35.88 15.21h-3.635V9.166h-3.264V6.131h10.146v3.015H35.88v6.064Z"/><path fill="#676767" d="M24.912 6.201c.58-1.501 1.483-2.749 2.67-3.783C29.103 1.09 30.88.281 32.897.064c5.624-.606 9.24 3.218 10.28 6.134-.087.005-.167.015-.247.016-.76 0-1.52-.006-2.28.005-.179.002-.273-.059-.367-.207-1.062-1.681-2.542-2.817-4.49-3.273-2.328-.545-4.452-.078-6.334 1.411a6.94 6.94 0 0 0-1.643 1.868c-.083.139-.17.204-.344.201-.769-.011-1.537-.004-2.306-.005-.075 0-.15-.008-.256-.013Z"/></svg>