<svg xmlns="http://www.w3.org/2000/svg" width="30" height="36" fill="none"><path fill="#676767" d="M17.38 15.29a2.782 2.782 0 0 0 2.635 2.327l-.002.002c.094-.02.189-.038.283-.056.204-.038.408-.075.6-.144 1.52-.546 2.225-2.374 1.537-3.95-.689-1.576-2.616-2.12-3.97-1.086-.95.724-1.28 1.727-1.083 2.907Z"/><path fill="#676767" fill-rule="evenodd" d="M29.2 0H.153v29.482H29.2V0ZM17.739 18.995c-.05-.03-.1-.062-.198-.12v.875c0 .747-.001 1.493.005 2.24.001.169-.05.23-.213.266-.47.102-.94.213-1.407.325h-.001l-.564.133a.204.204 0 0 1-.049.004.86.86 0 0 0-.045.002l-.005-.062a1.657 1.657 0 0 1-.007-.135c0-4.186 0-8.374-.003-12.56 0-.156.036-.224.197-.261.435-.1.867-.208 1.3-.316l.613-.153c.034-.008.07-.013.113-.02l.074-.012v1.343l.064-.026c.032-.013.056-.022.077-.035 2.25-1.425 5.091-.718 6.467 1.61 1.42 2.401.661 5.58-1.706 6.968-1.564.916-3.153.859-4.712-.065Zm-3.72-12.77.053-.006h.001l.004.063c.002.04.004.075.004.11V9.44c-.002 2.032-.002 4.064 0 6.096.001 1.089-.326 2.047-1.072 2.838-.647.684-1.454 1.068-2.363 1.23-1.006.178-2 .136-2.958-.26-1.27-.524-2.041-1.485-2.329-2.839a6.427 6.427 0 0 1-.13-1.29c-.01-2.17-.01-4.341-.009-6.512V6.916c0-.107 0-.19.14-.22.468-.101.934-.205 1.401-.31l.7-.156a.924.924 0 0 1 .083-.013A4.73 4.73 0 0 0 7.6 6.21V8.76c0 2.087.001 4.173.008 6.259 0 .326.04.658.114.974.181.767.676 1.208 1.439 1.336.406.07.814.07 1.213-.037.71-.19 1.091-.702 1.215-1.406.077-.444.108-.9.11-1.35.007-2.072.005-4.145.004-6.218L11.7 6.937v-.01c0-.113 0-.202.15-.233.49-.104.981-.214 1.471-.323h.001l.612-.136a.824.824 0 0 1 .084-.01Z" clip-rule="evenodd"/><path fill="#676767" d="M11.904 35.962c.3-.022.57-.04.875-.06l.003-.002v-.23l.01-.691c.008-.536.016-1.073.028-1.608.008-.318.24-.56.524-.541.254.017.472.083.464.534-.01.562-.008 1.124-.006 1.686l.002.693v.215l.359-.025.516-.037V33.11c0-.818-.671-1.256-1.432-1.063-.159.04-.305.134-.456.23-.07.046-.143.092-.217.133-.207-.217-.472-.395-.844-.407-.377-.013-.634.17-.892.486v-.452c-.068.005-.134.011-.2.018-.143.014-.28.027-.416.025-.162-.003-.22.036-.22.215.007.87.006 1.74.006 2.608v1.058l.874-.059v-.214l-.001-.546v-.001c-.002-.469-.005-.937.008-1.405.006-.22.057-.45.134-.657.077-.208.313-.289.53-.232.272.073.35.173.35.45v2.666Z"/><path fill="#676767" fill-rule="evenodd" d="M16.166 32.363a.256.256 0 0 1 .027-.003c.015-.001.026-.002.033-.008.906-.825 2.363-.158 2.647 1.1.159.703.034 1.342-.428 1.89a1.808 1.808 0 0 1-1.254.648c-1.09.108-1.8-.873-1.856-1.686-.029-.417-.033-.837-.038-1.255-.003-.31-.002-.62-.001-.929 0-.366.002-.732-.003-1.097-.003-.175.026-.253.223-.25.146.003.292-.023.443-.049.068-.011.137-.023.207-.033v1.672Zm1.011 2.778c.05-.021.104-.04.157-.058.11-.039.221-.078.312-.145.527-.387.585-1.288.128-1.763-.307-.32-.68-.381-1.049-.163-.352.21-.505.537-.527.945-.032.61.418 1.161.98 1.184ZM7.54 35.994c1.196.085 2.1-1.016 2.027-1.981l-.001-.002c.067-1.109-.9-1.96-1.759-2.011-1.193-.071-2.069.912-2.067 1.992.003 1.145.887 1.937 1.8 2.002Zm.133-.887a1.094 1.094 0 0 1-1.075-1.104v.002c-.001-.647.517-1.114 1.066-1.114.588-.001 1.037.522 1.07 1.029.044.674-.517 1.187-1.06 1.187ZM23.105 34.01c.075.973-.837 2.068-2.021 1.986-.912-.064-1.8-.853-1.804-1.999-.005-1.085.875-2.065 2.063-1.995.863.05 1.826.903 1.762 2.007Zm-2.968-.005a1.093 1.093 0 0 0 1.075 1.102c.542 0 1.103-.513 1.06-1.19-.034-.508-.49-1.038-1.09-1.026-.53.01-1.05.466-1.047 1.114h.002Z" clip-rule="evenodd"/><path fill="#676767" d="M25.84 35.487v.473l.003.002.214-.019c.148-.014.287-.027.425-.025.159.003.206-.043.206-.21-.006-.914-.006-1.828-.005-2.742v-.786c0-.036-.003-.071-.006-.113a5.594 5.594 0 0 1-.005-.069l-.409.049-.455.054v.208l.001.514c.002.43.004.859-.006 1.287-.008.326-.038.66-.32.887-.32.26-.841.262-.972-.265a1.909 1.909 0 0 1-.052-.456 153.367 153.367 0 0 1-.003-2.062v-.219c-.075.01-.147.021-.217.032-.163.024-.317.048-.471.052-.155.005-.192.054-.192.205.003.33.001.66 0 .99-.003.487-.005.974.008 1.461.027 1.008.692 1.382 1.577 1.228.281-.05.484-.223.679-.476ZM4.86 35.548v-3.76l.292-.001h.005c.244 0 .48-.001.717.002.106.002.155-.025.152-.144-.008-.236-.006-.47 0-.706.005-.114-.038-.155-.148-.15a4.18 4.18 0 0 1-.23.001l-.115-.001H5.12c-.688 0-1.377 0-2.066.005-.064 0-.173.045-.185.09-.059.213-.105.431-.154.658l-.053.245h1.285v4.162c.038 0 .074 0 .109.002.064.001.123.002.181-.002.042-.003.083-.01.124-.016.048-.008.096-.016.144-.018h.01c.172-.007.258-.01.302-.056.043-.046.043-.134.043-.311Z"/></svg>