<svg xmlns="http://www.w3.org/2000/svg" width="53" height="18" fill="none"><path fill="#676767" d="m20.526.787-6.852 16.45H9.162L5.843 4.225A1.79 1.79 0 0 0 4.84 2.768 18.36 18.36 0 0 0 .686 1.36V.882h7.163a2.006 2.006 0 0 1 1.957 1.695l1.767 9.55L15.966.93l4.56-.143Zm17.5 11.078c0-4.322-5.968-4.56-5.92-6.518 0-.573.573-1.218 1.79-1.361a7.927 7.927 0 0 1 4.179.716l.74-3.486A11.77 11.77 0 0 0 34.852.5c-4.179 0-7.163 2.22-7.163 5.444 0 2.387 2.1 3.676 3.7 4.464 1.6.788 2.197 1.337 2.197 2.053 0 1.099-1.313 1.576-2.53 1.6a8.74 8.74 0 0 1-4.346-1.026l-.836 3.605c1.524.585 3.144.877 4.776.86 4.44 0 7.33-2.197 7.353-5.635h.024Zm11.007 5.372h3.892L49.535.787h-3.581a1.958 1.958 0 0 0-1.815 1.217l-6.327 15.233h4.44l.86-2.388h5.42l.502 2.388Zm-4.775-5.826 2.245-6.16 1.337 6.136-3.582.024ZM26.495.787l-3.486 16.45h-4.154L22.341.787h4.154Z"/></svg>