<svg xmlns="http://www.w3.org/2000/svg" width="117" height="38" fill="none"><rect width="117" height="36.115" y=".942" fill="#138484" rx="3.869"/><path fill="#fff" d="M25.8 19.738c.013-.89.26-1.762.717-2.537a5.38 5.38 0 0 1 1.901-1.89 5.557 5.557 0 0 0-1.933-1.653 5.81 5.81 0 0 0-2.5-.647c-1.864-.188-3.672 1.071-4.622 1.071-.97 0-2.432-1.053-4.008-1.021a6.083 6.083 0 0 0-2.883.825 5.777 5.777 0 0 0-2.084 2.083c-2.148 3.57-.546 8.816 1.511 11.702 1.03 1.413 2.233 2.991 3.807 2.935 1.54-.061 2.116-.943 3.975-.943 1.842 0 2.382.943 3.988.908 1.653-.026 2.694-1.42 3.688-2.846a11.504 11.504 0 0 0 1.686-3.297 5.267 5.267 0 0 1-2.356-1.877 4.955 4.955 0 0 1-.886-2.813ZM22.767 11.114a5.059 5.059 0 0 0 1.238-3.722 5.584 5.584 0 0 0-3.562 1.77 4.898 4.898 0 0 0-1.007 1.67 4.76 4.76 0 0 0-.263 1.913 4.711 4.711 0 0 0 1.992-.419 4.528 4.528 0 0 0 1.602-1.212ZM45.855 24.722h-4.489l-1.078 3.11h-1.901l4.252-11.506h1.975l4.252 11.507h-1.934l-1.077-3.11Zm-4.024-1.435h3.558l-1.754-5.047h-.049l-1.755 5.047ZM58.048 23.639c0 2.607-1.428 4.282-3.584 4.282a2.966 2.966 0 0 1-1.566-.355 2.879 2.879 0 0 1-1.135-1.113h-.04v4.155H49.96V19.443h1.706v1.396h.032c.276-.466.676-.85 1.157-1.11a3.103 3.103 0 0 1 1.577-.373c2.18 0 3.616 1.683 3.616 4.282Zm-1.812 0c0-1.699-.898-2.816-2.269-2.816-1.346 0-2.252 1.14-2.252 2.816 0 1.69.906 2.822 2.252 2.822 1.37 0 2.27-1.109 2.27-2.822ZM67.498 23.639c0 2.607-1.428 4.282-3.583 4.282a2.966 2.966 0 0 1-1.567-.355 2.878 2.878 0 0 1-1.134-1.113h-.041v4.155H59.41V19.443h1.706v1.396h.033c.276-.466.675-.85 1.157-1.11a3.103 3.103 0 0 1 1.577-.373c2.179 0 3.615 1.683 3.615 4.282Zm-1.811 0c0-1.699-.899-2.816-2.27-2.816-1.346 0-2.252 1.14-2.252 2.816 0 1.69.906 2.822 2.253 2.822 1.37 0 2.269-1.109 2.269-2.822ZM73.744 24.627c.13 1.141 1.265 1.89 2.815 1.89 1.486 0 2.554-.749 2.554-1.778 0-.893-.644-1.428-2.17-1.794l-1.527-.36c-2.162-.51-3.166-1.498-3.166-3.102 0-1.985 1.77-3.349 4.285-3.349 2.488 0 4.194 1.364 4.252 3.35h-1.78c-.106-1.149-1.077-1.842-2.497-1.842s-2.391.701-2.391 1.722c0 .813.62 1.292 2.138 1.659l1.298.31c2.416.56 3.42 1.508 3.42 3.19 0 2.154-1.755 3.502-4.546 3.502-2.612 0-4.375-1.317-4.49-3.398h1.805ZM84.777 17.458v1.985h1.633v1.364h-1.633v4.625c0 .719.327 1.053 1.045 1.053.194-.003.387-.016.58-.04v1.356c-.323.06-.65.086-.98.08-1.737 0-2.415-.638-2.415-2.265v-4.809h-1.249v-1.364h1.249v-1.985h1.77ZM87.356 23.64c0-2.64 1.592-4.3 4.073-4.3 2.489 0 4.072 1.66 4.072 4.3 0 2.646-1.575 4.297-4.073 4.297-2.496 0-4.072-1.651-4.072-4.298Zm6.35 0c0-1.812-.85-2.88-2.278-2.88s-2.276 1.077-2.276 2.88c0 1.817.848 2.878 2.276 2.878s2.278-1.06 2.278-2.879ZM96.954 19.443h1.681v1.428h.041c.114-.446.381-.84.757-1.116a2.08 2.08 0 0 1 1.308-.4c.203 0 .406.021.604.065v1.61a2.517 2.517 0 0 0-.792-.104 1.814 1.814 0 0 0-.748.13c-.237.095-.45.24-.625.423a1.699 1.699 0 0 0-.464 1.378v4.976h-1.762v-8.39ZM109.47 25.37c-.237 1.522-1.755 2.567-3.697 2.567-2.498 0-4.048-1.635-4.048-4.258 0-2.631 1.558-4.338 3.974-4.338 2.375 0 3.869 1.594 3.869 4.138v.59h-6.064v.104a2.162 2.162 0 0 0 .606 1.697c.218.225.483.402.777.52.294.116.61.17.927.16.416.037.834-.057 1.191-.27a1.91 1.91 0 0 0 .791-.91h1.674Zm-5.958-2.505h4.293a1.993 1.993 0 0 0-.577-1.514 2.074 2.074 0 0 0-.699-.463 2.107 2.107 0 0 0-.83-.152 2.216 2.216 0 0 0-1.548.62 2.09 2.09 0 0 0-.639 1.51ZM41.61 7.665c.37-.025.74.03 1.086.16.345.131.656.336.91.598.255.263.447.578.563.922.115.344.15.709.104 1.068 0 1.766-.978 2.781-2.663 2.781h-2.044V7.665h2.044Zm-1.165 4.748h1.067c.264.015.528-.027.773-.124.246-.097.465-.246.644-.437a1.701 1.701 0 0 0 .449-1.428 1.706 1.706 0 0 0-.456-1.419 1.785 1.785 0 0 0-.641-.433 1.821 1.821 0 0 0-.77-.125h-1.066v3.966ZM45.265 11.106c-.026-.274.006-.551.095-.812.089-.262.233-.502.422-.706.19-.204.42-.367.679-.478a2.063 2.063 0 0 1 2.315.478 1.935 1.935 0 0 1 .517 1.518c.027.274-.004.551-.093.813a1.965 1.965 0 0 1-.422.707c-.19.204-.421.367-.68.48a2.064 2.064 0 0 1-2.317-.48 1.968 1.968 0 0 1-.422-.707 1.933 1.933 0 0 1-.094-.813Zm3.161 0c0-.905-.416-1.434-1.145-1.434-.733 0-1.145.53-1.145 1.434 0 .912.412 1.436 1.145 1.436.73 0 1.145-.528 1.145-1.436ZM54.647 13.195h-.874l-.883-3.073h-.066l-.88 3.073h-.865l-1.177-4.173h.855l.765 3.184h.063l.877-3.184h.809l.878 3.184h.067l.76-3.184h.844l-1.173 4.173ZM56.808 9.023h.811v.662h.063a1.26 1.26 0 0 1 .516-.57c.228-.134.493-.194.759-.173a1.419 1.419 0 0 1 1.12.429 1.328 1.328 0 0 1 .357 1.123v2.701h-.842v-2.494c0-.67-.298-1.004-.922-1.004a1 1 0 0 0-.758.3.952.952 0 0 0-.261.757v2.441h-.843V9.023ZM61.778 7.392h.843v5.801h-.843v-5.8ZM63.792 11.106a1.935 1.935 0 0 1 .517-1.518c.19-.204.42-.367.679-.478a2.063 2.063 0 0 1 2.315.478c.19.204.334.444.423.706.089.261.121.538.094.812.028.274-.004.552-.093.813a1.966 1.966 0 0 1-.422.707c-.19.204-.421.367-.68.48a2.064 2.064 0 0 1-2.317-.48 1.969 1.969 0 0 1-.423-.707 1.935 1.935 0 0 1-.093-.813Zm3.161 0c0-.905-.416-1.433-1.146-1.433-.732 0-1.144.528-1.144 1.433 0 .912.412 1.437 1.144 1.437.73 0 1.146-.529 1.146-1.437ZM68.708 12.014c0-.751.572-1.184 1.588-1.246l1.157-.065v-.36c0-.44-.298-.69-.874-.69-.47 0-.797.17-.89.464h-.816c.086-.716.776-1.176 1.745-1.176 1.07 0 1.674.52 1.674 1.402v2.851h-.811v-.586h-.067c-.135.21-.325.381-.55.496-.226.116-.479.17-.733.159a1.319 1.319 0 0 1-.995-.316 1.237 1.237 0 0 1-.428-.933Zm2.745-.356v-.35l-1.043.066c-.588.038-.855.234-.855.601 0 .376.334.595.792.595a1.027 1.027 0 0 0 .751-.227.989.989 0 0 0 .355-.685ZM73.4 11.105c0-1.318.693-2.153 1.772-2.153.267-.012.532.05.764.18.231.13.42.32.545.552h.063V7.392h.843v5.801h-.807v-.659h-.067c-.134.23-.33.419-.567.547a1.51 1.51 0 0 1-.774.181c-1.086 0-1.773-.835-1.773-2.157Zm.87 0c0 .885.427 1.418 1.14 1.418.711 0 1.15-.54 1.15-1.414 0-.87-.443-1.418-1.15-1.418-.709 0-1.14.537-1.14 1.414ZM80.874 11.106a1.935 1.935 0 0 1 .516-1.518c.19-.204.421-.367.679-.478a2.063 2.063 0 0 1 2.315.478c.19.204.334.444.423.706.089.261.121.538.094.812.028.274-.004.551-.093.813a1.968 1.968 0 0 1-.422.707c-.19.204-.421.367-.68.48a2.063 2.063 0 0 1-2.317-.48 1.965 1.965 0 0 1-.422-.707 1.935 1.935 0 0 1-.093-.813Zm3.16 0c0-.905-.416-1.434-1.145-1.434-.733 0-1.145.53-1.145 1.434 0 .912.412 1.436 1.145 1.436.73 0 1.145-.528 1.145-1.436ZM86.032 9.023h.812v.662h.063c.106-.238.287-.437.515-.57.229-.134.494-.194.759-.173a1.418 1.418 0 0 1 1.12.429 1.33 1.33 0 0 1 .357 1.123v2.701h-.842v-2.494c0-.67-.298-1.004-.921-1.004a1 1 0 0 0-.759.3.955.955 0 0 0-.26.757v2.441h-.844V9.023ZM94.42 7.982V9.04h.926v.693h-.925v2.146c0 .437.184.628.604.628.107 0 .214-.006.32-.019v.686c-.15.027-.304.04-.457.042-.938 0-1.31-.322-1.31-1.126V9.733h-.679V9.04h.678V7.982h.844ZM96.497 7.392h.836v2.3h.066c.112-.24.297-.442.53-.575.233-.134.503-.194.772-.173a1.436 1.436 0 0 1 1.11.44 1.362 1.362 0 0 1 .361 1.116v2.694h-.844v-2.491c0-.667-.317-1.004-.913-1.004a1.02 1.02 0 0 0-.79.284.973.973 0 0 0-.285.774v2.437h-.843V7.392ZM105.086 12.068a1.701 1.701 0 0 1-.701.931c-.339.221-.745.319-1.15.276a1.977 1.977 0 0 1-.819-.155 1.927 1.927 0 0 1-.677-.476 1.879 1.879 0 0 1-.41-.71 1.85 1.85 0 0 1-.066-.813 1.874 1.874 0 0 1 .067-.815c.082-.264.221-.507.408-.714a1.976 1.976 0 0 1 1.493-.651c1.189 0 1.905.793 1.905 2.103v.288h-3.015v.046a1.088 1.088 0 0 0 .298.843 1.148 1.148 0 0 0 .839.352c.202.024.406-.011.587-.102.181-.09.33-.23.429-.404h.812Zm-2.965-1.345h2.157a.985.985 0 0 0-.281-.768 1.027 1.027 0 0 0-.77-.313 1.117 1.117 0 0 0-.786.312 1.042 1.042 0 0 0-.32.768Z"/></svg>