<svg xmlns="http://www.w3.org/2000/svg" width="117" height="36" fill="none"><rect width="117" height="36" fill="#138484" rx="3.869"/><path fill="#fff" d="m10.053 11.478 5.871 5.842a1.01 1.01 0 0 1 0 1.434L10.046 24.7l.007-13.221Zm2.03-2.86 6.577 3.759 2.334 1.333-2.191 2.18a1.024 1.024 0 0 1-1.442 0l-7.056-7.018c.42-.43 1.18-.604 1.777-.254Zm-.738 18.97c-.395 0-.746-.175-.998-.428l7.014-6.977a1.024 1.024 0 0 1 1.442 0l2.16 2.15-8.91 5.066a1.416 1.416 0 0 1-.708.188Zm14.977-8.367-3.531 2.07-2.551-2.537a1.011 1.011 0 0 1 0-1.434l2.58-2.566 3.514 2.052.022.012c.445.24.72.696.72 1.192 0 .5-.279.958-.754 1.21Zm1.109-4.163L13.106 6.872a3.474 3.474 0 0 0-1.76-.48c-1.595 0-2.99 1.078-3.314 2.535-.035.14-.117.502-.11.847l.002 16.488c.011.334.103.787.117.842.398 1.475 1.757 2.504 3.304 2.504.61 0 1.21-.16 1.725-.459L27.4 21a3.377 3.377 0 0 0 1.804-2.98 3.372 3.372 0 0 0-1.773-2.962ZM43.335 9.274c0 .715-.21 1.284-.633 1.709-.481.505-1.107.757-1.876.757a2.562 2.562 0 0 1-1.879-.768c-.516-.512-.773-1.148-.773-1.906s.257-1.393.773-1.906a2.565 2.565 0 0 1 1.88-.768c.364 0 .715.071 1.047.215.332.143.599.333.799.571l-.45.45c-.337-.404-.803-.607-1.397-.607a1.94 1.94 0 0 0-1.395.569c-.392.38-.587.87-.587 1.476 0 .605.195 1.098.587 1.476.393.38.857.569 1.395.569.57 0 1.045-.19 1.426-.572.247-.248.39-.593.427-1.037h-1.853v-.615H43.3c.024.134.035.263.035.387Z"/><path fill="#fff" d="M43.335 9.274c0 .715-.21 1.284-.633 1.709-.481.505-1.107.757-1.876.757a2.562 2.562 0 0 1-1.879-.768c-.516-.512-.773-1.148-.773-1.906s.257-1.393.773-1.906a2.565 2.565 0 0 1 1.88-.768c.364 0 .715.071 1.047.215.332.143.599.333.799.571l-.45.45c-.337-.404-.803-.607-1.397-.607a1.94 1.94 0 0 0-1.395.569c-.392.38-.587.87-.587 1.476 0 .605.195 1.098.587 1.476.393.38.857.569 1.395.569.57 0 1.045-.19 1.426-.572.247-.248.39-.593.427-1.037h-1.853v-.615H43.3c.024.134.035.263.035.387ZM47.258 7.137h-2.325V8.76h2.097v.615h-2.097v1.623h2.325v.63h-2.98v-5.12h2.98v.63Z"/><path fill="#fff" d="M47.258 7.137h-2.325V8.76h2.097v.615h-2.097v1.623h2.325v.63h-2.98v-5.12h2.98v.63ZM50.023 11.627h-.656v-4.49H47.94v-.629h3.508v.63h-1.426v4.49Z"/><path fill="#fff" d="M50.023 11.627h-.656v-4.49H47.94v-.629h3.508v.63h-1.426v4.49ZM53.99 6.508h.655v5.12h-.656v-5.12ZM57.554 11.627h-.656v-4.49h-1.426v-.629h3.508v.63h-1.426v4.49Z"/><path fill="#fff" d="M57.554 11.627h-.656v-4.49h-1.426v-.629h3.508v.63h-1.426v4.49ZM62.363 10.536c.377.383.84.575 1.387.575a1.87 1.87 0 0 0 1.386-.575c.378-.384.568-.874.568-1.47 0-.595-.19-1.086-.567-1.469a1.87 1.87 0 0 0-1.387-.576 1.87 1.87 0 0 0-1.387.576c-.377.383-.567.874-.567 1.47 0 .595.19 1.085.567 1.469Zm3.258.428c-.501.518-1.125.776-1.871.776-.747 0-1.37-.258-1.872-.776-.502-.517-.752-1.15-.752-1.898s.25-1.38.752-1.898c.502-.517 1.125-.776 1.872-.776.742 0 1.364.26 1.868.78s.756 1.15.756 1.894c0 .749-.251 1.38-.752 1.898Z"/><path fill="#fff" d="M62.363 10.536c.377.383.84.575 1.387.575a1.87 1.87 0 0 0 1.386-.575c.378-.384.568-.874.568-1.47 0-.595-.19-1.086-.567-1.469a1.87 1.87 0 0 0-1.387-.576 1.87 1.87 0 0 0-1.387.576c-.377.383-.567.874-.567 1.47 0 .595.19 1.085.567 1.469Zm3.258.428c-.501.518-1.125.776-1.871.776-.747 0-1.37-.258-1.872-.776-.502-.517-.752-1.15-.752-1.898s.25-1.38.752-1.898c.502-.517 1.125-.776 1.872-.776.742 0 1.364.26 1.868.78s.756 1.15.756 1.894c0 .749-.251 1.38-.752 1.898ZM67.293 11.627V6.508h.798l2.481 3.982h.03l-.03-.986V6.508h.657v5.12h-.685l-2.596-4.176h-.028l.028.987v3.188h-.655Z"/><path fill="#fff" d="M67.293 11.627V6.508h.798l2.481 3.982h.03l-.03-.986V6.508h.657v5.12h-.685l-2.596-4.176h-.028l.028.987v3.188h-.655ZM93.979 26.13h1.588V15.465h-1.588V26.13Zm14.301-6.823-1.82 4.624h-.055l-1.889-4.624h-1.71l2.833 6.463-1.614 3.595h1.655l4.366-10.058h-1.766Zm-9.004 5.612c-.521 0-1.246-.26-1.246-.906 0-.823.903-1.138 1.683-1.138.698 0 1.027.15 1.451.356a1.927 1.927 0 0 1-1.888 1.688Zm.191-5.845c-1.15 0-2.34.507-2.832 1.633l1.409.59c.3-.59.862-.783 1.45-.783.821 0 1.656.494 1.67 1.373v.109a3.507 3.507 0 0 0-1.656-.411c-1.519 0-3.066.837-3.066 2.4 0 1.428 1.246 2.348 2.641 2.348 1.068 0 1.657-.48 2.026-1.044h.055v.823h1.532v-4.089c0-1.893-1.409-2.95-3.229-2.95Zm-9.813 1.531h-2.258V16.95h2.258c1.188 0 1.861.986 1.861 1.828 0 .827-.674 1.828-1.86 1.828Zm-.04-5.14h-3.805V26.13h1.587v-4.04h2.218c1.76 0 3.49-1.278 3.49-3.313s-1.73-3.312-3.49-3.312ZM68.868 24.92c-1.097 0-2.015-.921-2.015-2.185 0-1.279.918-2.213 2.015-2.213 1.083 0 1.932.934 1.932 2.213 0 1.264-.849 2.185-1.932 2.185Zm1.823-5.017h-.055c-.356-.426-1.041-.81-1.905-.81-1.81 0-3.468 1.593-3.468 3.642 0 2.034 1.658 3.614 3.468 3.614.864 0 1.549-.384 1.905-.825h.055v.524c0 1.388-.74 2.13-1.933 2.13-.973 0-1.577-.701-1.823-1.293l-1.385.578c.398.962 1.454 2.144 3.208 2.144 1.864 0 3.441-1.1 3.441-3.78v-6.515h-1.508v.59Zm2.605 6.226h1.59V15.464h-1.59V26.13Zm3.934-3.518c-.041-1.402 1.083-2.117 1.891-2.117.632 0 1.166.316 1.344.77l-3.235 1.347Zm4.935-1.21c-.301-.81-1.22-2.309-3.098-2.309-1.865 0-3.413 1.47-3.413 3.629 0 2.034 1.535 3.628 3.59 3.628 1.66 0 2.62-1.017 3.017-1.608l-1.234-.825c-.41.605-.973 1.004-1.782 1.004s-1.385-.372-1.755-1.1l4.84-2.007-.165-.412Zm-38.553-1.195v1.539h3.673c-.11.866-.397 1.498-.835 1.938-.535.536-1.372 1.127-2.838 1.127-2.262 0-4.03-1.828-4.03-4.096s1.768-4.096 4.03-4.096c1.22 0 2.111.481 2.769 1.1l1.083-1.086c-.919-.88-2.138-1.554-3.852-1.554-3.098 0-5.703 2.53-5.703 5.636 0 3.107 2.605 5.636 5.703 5.636 1.672 0 2.933-.55 3.92-1.581 1.015-1.017 1.33-2.447 1.33-3.602 0-.357-.027-.686-.082-.961h-5.168Zm9.427 4.714c-1.096 0-2.043-.907-2.043-2.2 0-1.305.947-2.198 2.043-2.198s2.042.893 2.042 2.199c0 1.292-.946 2.199-2.042 2.199Zm0-5.828c-2.002 0-3.633 1.526-3.633 3.629 0 2.09 1.631 3.628 3.633 3.628s3.633-1.539 3.633-3.628c0-2.103-1.631-3.629-3.633-3.629Zm7.925 5.828c-1.097 0-2.043-.907-2.043-2.2 0-1.305.946-2.198 2.043-2.198 1.097 0 2.042.893 2.042 2.199 0 1.292-.945 2.199-2.042 2.199Zm0-5.828c-2.002 0-3.633 1.526-3.633 3.629 0 2.09 1.631 3.628 3.633 3.628 2.001 0 3.632-1.539 3.632-3.628 0-2.103-1.63-3.629-3.632-3.629Z"/></svg>