<svg xmlns="http://www.w3.org/2000/svg" width="91" height="91" fill="none"><path fill="#F5F5F5" d="M65.813 25.188h15.843v2.843h3.25v3.25h-3.25v3.25h3.25v3.25h-3.25v2.844h3.25v3.25h-6.5v3.25h-2.844v3.25h-3.25v-3.25h-6.5v6.094h3.25v6.5h3.25v3.25h3.25v-3.25h2.844v6.093h6.5v3.25h-6.5v12.594h-2.844v-3.25h-3.25v3.25h-6.5v6.5H62.97v-3.25h-3.25v-3.25h-3.25v6.5h-3.25v-6.5h-2.844v3.25h-6.5v3.25h6.5V91H34.531v-2.844h6.094V75.562h-2.844v6.094h-3.25v-6.094h-3.25v2.844h-6.093v-2.844h2.843v-3.25h6.5v-3.25h-3.25V62.97h3.25v2.843h3.25v3.25h9.344v-3.25h-3.25V59.72h-3.25v-6.5h-2.844v3.25h-3.25v-3.25h-6.5v-2.844h3.25v-3.25h3.25v3.25h3.25v-3.25h2.844v3.25h6.5v6.094h3.25v3.25h-3.25v3.25h6.094v-6.5h3.25v-3.25h-6.094v-2.844h6.094v-3.25h-6.094v-3.25h2.844v-3.25h3.25v-2.844h-3.25v-3.25h6.5v3.25h6.093v6.094h9.75v-6.094h2.844v-3.25h-9.344v-3.25h3.25v-3.25h-6.5v-2.843Z"/><path fill="#232323" d="M28.031 6.094h3.25v6.5h3.25v2.844h-3.25v3.25h3.25v3.25h3.25v-9.344h9.344V28.03h6.094v3.25h-2.844v6.5h-3.25v-3.25h-3.25v6.094h3.25v3.25h-3.25v3.25h-3.25v-3.25H21.937v-3.25h3.25v-6.094h-6.5v3.25h-3.25v2.844h-2.843v-6.094h-6.5v-3.25h19.093V9.344h2.844v-3.25Z"/><path fill="#F5F5F5" d="M0 69.063h21.938v21.938H0V69.063ZM69.063 0H91v21.938H69.062V0ZM0 0h21.938v21.938H0V0Z"/><path fill="#232323" d="M31.281 62.969h3.25v2.843h3.25v3.25h9.344v3.25h6.094v3.25h9.75v2.844h-6.5v9.75h-3.25v-6.5h-2.844v3.25h-6.5v3.25h6.5V91H34.531v-2.844h6.094V75.562h-2.844v6.094h-3.25v-6.094h-3.25v2.844h-6.093v-2.844h2.843v-3.25h6.5v-3.25h-3.25V62.97Z"/><path fill="#232323" d="M69.063 59.719h3.25v3.25h3.25v-3.25h2.843v6.093h6.5v3.25h-6.5v12.594h-2.844v-3.25h-3.25v3.25h-6.5v6.5H62.97v-3.25h-3.25v-3.25h-3.25v-3.25h6.5v-2.844h-6.5v-3.25h3.25v-3.25h3.25V62.97h6.093v-3.25ZM65.813 25.188h15.843v2.843h3.25v3.25h-3.25v3.25h3.25v3.25h-3.25v2.844h3.25v3.25h-6.5v3.25h-2.844v3.25h-3.25v-3.25h-6.5v6.094h3.25v6.5h-3.25v-3.25H62.97v-9.344h-3.25v-3.25h3.25v-3.25h-6.5v-2.844h-3.25v-3.25h6.5v3.25h6.093v6.094h9.75v-6.094h2.844v-3.25h-9.344v-3.25h3.25v-3.25h-6.5v-2.843ZM12.594 43.875h2.844v3.25h3.25v3.25h3.25v-3.25h3.25v6.094H12.594v3.25h2.844v9.343H6.094V62.97h-3.25v-3.25H0V47.125h2.844v3.25h3.25v-3.25h3.25v3.25h3.25v-6.5ZM31.281 47.125h3.25v3.25h3.25v-3.25h2.844v3.25h6.5v6.094h3.25v3.25h-3.25v3.25h6.094v-6.5h3.25v3.25h3.25v3.25h-3.25v2.843h-3.25v3.25h-6.094v-3.25h-3.25V59.72h-3.25v-6.5h-2.844v3.25h-3.25v-3.25h-6.5v-2.844h3.25v-3.25ZM0 69.063h21.938v21.938H0V69.063Zm2.844 3.25v15.844h15.844V72.313H2.844ZM69.063 0H91v21.938H69.062V0Zm3.25 2.844v15.844h15.843V2.844H72.312ZM0 0h21.938v21.938H0V0Zm2.844 2.844v15.844h15.844V2.844H2.844Z"/><path fill="#232323" d="M28.031 6.094h3.25v6.5h3.25v2.844h-3.25v3.25h-3.25V34.53h-9.343v3.25h-3.25v2.844h-2.844v-6.094h-6.5v-3.25h19.093V9.344h2.844v-3.25ZM50.375 0h15.438v9.344h-6.094v3.25h3.25v6.094h-3.25v-3.25h-3.25v-2.844h-3.25v-3.25h-2.844v-3.25h6.094v-3.25h-6.094V0Z"/><path fill="#F5F5F5" d="M65.813 28.031h6.5v3.25h-3.25v3.25h9.343v3.25h-2.844v6.094h-9.75v-6.094H59.72v-3.25h6.093v-6.5Z"/><path fill="#232323" d="M88.156 59.719H91v12.593h-2.844v12.594h-3.25v3.25h3.25V91h-6.5v-2.844h-3.25v-3.25h3.25v-3.25h3.25v-3.25h-3.25v-2.844h3.25v-6.5h3.25V59.72Z"/><path fill="#F5F5F5" d="M62.969 56.469h2.843v3.25h3.25v3.25H62.97v6.093h-3.25v3.25h-3.25v3.25h-3.25v-3.25h-6.094v-3.25h6.094v-3.25h3.25V62.97h3.25v-3.25h3.25v-3.25ZM21.938 43.875h18.687v3.25h-2.844v3.25h-3.25v-3.25h-3.25v3.25h-3.25v2.844h-2.843v-6.094h-3.25v-3.25Z"/><path fill="#232323" d="M53.219 56.469h3.25v3.25h3.25v3.25h-3.25v2.843h-3.25v3.25h-6.094v-3.25h-3.25V59.72h3.25v3.25h6.094v-6.5ZM37.781 12.594h9.344V28.03h-6.5v-2.843h3.25v-9.75h-3.25v6.5h-2.844v-9.344Z"/><path fill="#F5F5F5" d="M65.813 65.813h9.75v9.75h-9.75v-9.75Z"/><path fill="#232323" d="M6.094 31.281h19.093v3.25h-6.5v3.25h-3.25v2.844h-2.843v-6.094h-6.5v-3.25ZM6.094 75.563h9.343v9.343H6.095v-9.344ZM6.094 56.469h3.25v3.25h3.25v-3.25h2.844v9.343H6.094V62.97h-3.25v-3.25h3.25v-3.25ZM75.563 6.094h9.343v9.343h-9.344V6.095ZM6.094 6.094h9.343v9.343H6.095V6.095Z"/><path fill="#F5F5F5" d="M53.219 40.626h9.75v3.25h-3.25v6.5h-3.25v-3.25h-6.094v-3.25h2.844v-3.25Z"/><path fill="#232323" d="M50.375 6.094h6.094v3.25h3.25v3.25h3.25v6.094h-3.25v-3.25h-3.25v-2.844h-3.25v-3.25h-2.844v-3.25Z"/><path fill="#F5F5F5" d="M47.125 50.374h3.25v2.844h6.094v3.25h-3.25v6.5h-6.094v-3.25h3.25v-3.25h-3.25v-6.094Z"/><path fill="#232323" d="M21.938 59.719h9.343v3.25h-3.25v6.093h-2.843v-3.25h-6.5V62.97h3.25v-3.25ZM88.156 31.281H91v19.094h-2.844v-3.25h-3.25v-3.25h3.25V31.281ZM25.188 81.656h9.343v3.25h-3.25v3.25h-3.25v2.843h-2.843v-9.343ZM56.469 28.031h9.343v6.5H59.72v-3.25h-3.25v-3.25ZM31.281 0h3.25v2.844h3.25v3.25h2.844v3.25h-6.094v-3.25h-3.25V0Z"/><path fill="#F5F5F5" d="M31.281 31.281h3.25v3.25h3.25v3.25h2.844v2.844h-6.094v-2.844h-3.25v-6.5ZM40.625 15.438h3.25v9.75h-3.25v2.843h-2.844v-6.093h2.844v-6.5ZM28.031 18.688h3.25V31.28h-3.25V18.688Z"/><path fill="#232323" d="M0 25.188h9.344v2.843h-3.25v3.25h-3.25v-3.25H0v-2.843Z"/><path fill="#F5F5F5" d="M2.844 53.218h6.5v3.25h-3.25v3.25h-3.25v-6.5Z"/><path fill="#232323" d="M56.469 18.688h3.25v6.5h-6.5v-3.25h3.25v-3.25ZM53.219 40.626h3.25v6.5h-6.094v-3.25h2.844v-3.25Z"/><path fill="#F5F5F5" d="M18.688 34.531h6.5v6.094h-3.25v-2.844h-3.25v-3.25Z"/><path fill="#232323" d="M0 34.531h6.094v6.094h-3.25v-2.844H0v-3.25ZM53.219 81.656h3.25v6.5h-3.25v-6.5Z"/><path fill="#F5F5F5" d="M43.875 78.406h6.5v3.25h-6.5v-3.25Z"/><path fill="#232323" d="M78.406 56.469h6.5v3.25h-6.5v-3.25Z"/><path fill="#F5F5F5" d="M40.625 28.031h6.5v3.25h-6.5v-3.25Z"/><path fill="#232323" d="M81.656 47.125h3.25v6.094h-3.25v-6.094Z"/><path fill="#F5F5F5" d="M50.375 47.125h6.094v3.25h-6.094v-3.25ZM56.469 75.563h6.5v2.843h-6.5v-2.844Z"/><path fill="#232323" d="M62.969 18.688h2.843v6.5H62.97v-6.5ZM50.375 50.374h6.094v2.844h-6.094v-2.844Z"/><path fill="#F5F5F5" d="M53.219 78.406h3.25v3.25h-3.25v-3.25Z"/><path fill="#232323" d="M69.063 69.063h3.25v3.25h-3.25v-3.25ZM59.719 56.469h3.25v3.25h-3.25v-3.25Z"/><path fill="#F5F5F5" d="M56.469 56.469h3.25v3.25h-3.25v-3.25Z"/><path fill="#232323" d="M47.125 56.469h3.25v3.25h-3.25v-3.25Z"/><path fill="#F5F5F5" d="M43.875 56.469h3.25v3.25h-3.25v-3.25Z"/><path fill="#232323" d="M18.688 56.469h3.25v3.25h-3.25v-3.25Z"/><path fill="#F5F5F5" d="M9.344 56.469h3.25v3.25h-3.25v-3.25Z"/><path fill="#232323" d="M72.313 53.218h3.25v3.25h-3.25v-3.25ZM56.469 53.218h3.25v3.25h-3.25v-3.25ZM56.469 47.125h3.25v3.25h-3.25v-3.25ZM47.125 47.125h3.25v3.25h-3.25v-3.25Z"/><path fill="#F5F5F5" d="M18.688 47.125h3.25v3.25h-3.25v-3.25Z"/><path fill="#232323" d="M18.688 43.875h3.25v3.25h-3.25v-3.25ZM81.656 28.031h3.25v3.25h-3.25v-3.25Z"/><path fill="#F5F5F5" d="M78.406 28.031h3.25v3.25h-3.25v-3.25ZM56.469 6.094h3.25v3.25h-3.25v-3.25Z"/><path fill="#232323" d="M43.875 6.094h3.25v3.25h-3.25v-3.25ZM56.469 88.156h3.25V91h-3.25v-2.844ZM50.375 78.406h2.844v3.25h-2.844v-3.25ZM53.219 75.563h3.25v2.843h-3.25v-2.844ZM37.781 59.719h2.844v3.25h-2.844v-3.25ZM25.188 53.218h2.843v3.25h-2.843v-3.25ZM69.063 37.782h3.25v2.844h-3.25v-2.844Z"/><path fill="#F5F5F5" d="M28.031 37.782h3.25v2.844h-3.25v-2.844Z"/><path fill="#232323" d="M18.688 37.782h3.25v2.844h-3.25v-2.844Z"/><path fill="#F5F5F5" d="M25.188 31.281h2.843v3.25h-2.843v-3.25Z"/><path fill="#232323" d="M18.688 25.188h3.25v2.843h-3.25v-2.843ZM50.375 18.688h2.844v3.25h-2.844v-3.25ZM40.625 0h3.25v2.844h-3.25V0Z"/><path fill="#F5F5F5" d="M50.375 75.563h2.844v2.843h-2.844v-2.844Z"/><path fill="#232323" d="M75.563 50.374h2.843v2.844h-2.844v-2.844ZM88.156 25.188H91v2.843h-2.844v-2.843ZM12.594 25.188h2.844v2.843h-2.844v-2.843ZM50.375 12.594h2.844v2.844h-2.844v-2.844ZM25.188 0h2.843v2.844h-2.843V0Z"/></svg>