<svg xmlns="http://www.w3.org/2000/svg" width="107" height="34" fill="none"><path fill="#676767" d="M18.128 6.597c6.927.067 12.079 4.958 13.328 10.782 1.485 6.92-2.459 13.765-9.061 15.93-7.643 2.507-15.67-2.05-17.484-9.798-1.107-4.73.024-8.971 3.305-12.573 2.101-2.306 4.746-3.674 7.838-4.162.288-.046.578-.09.869-.114.407-.032.817-.045 1.205-.065Zm4.057 16.146c.307.43.655.777 1.216.777.397 0 .794-.018 1.191-.024.216-.004.433 0 .663 0 0 .184.006.335 0 .486-.049 1.026-.107 2.051-.147 3.077-.029.746-.036 1.493-.053 2.24.16.384.019.69-.246.967-.01.01-.001.036-.001.103 3.163-2.36 5.02-5.417 5.281-9.357.142-2.14-.285-4.181-1.246-6.104a11.304 11.304 0 0 0-1.933-2.781l-2.35 2.548c.229.176.448.312.63.489 1.008.985 1.496 2.207 1.595 3.595.053.732-.154 1.41-.482 2.052a1.668 1.668 0 0 1-.336.445c-.533.503-1.135.897-1.85 1.098-.629.176-1.257.353-1.932.39Zm-15.9-3.575c-.267 2.284.133 4.448 1.143 6.497a11.166 11.166 0 0 0 2.108 2.976c.209-.445.545-.657.953-.78.36-.11.711-.085 1.069.017.29.082.427.307.567.538.01.017.037.023.088.052l1.816-1.99c-.03-.038-.036-.049-.045-.056-.047-.035-.095-.067-.142-.102-.638-.472-.956-1.108-.946-1.896.017-1.45 1.03-2.54 2.477-2.705a5.164 5.164 0 0 1 1.557.045c-.021-.048-.025-.074-.04-.09-.689-.7-1.386-1.39-2.169-1.99a.663.663 0 0 0-.452-.137c-1.028.025-2.058.04-3.087.069-1.344.038-2.688.088-4.032.129-.243.007-.486.001-.74.001l-.124-.578Zm6.306-1.543c.059-.119.11-.237.175-.348.381-.655.748-1.32 1.154-1.96.323-.51.83-.789 1.419-.88.402-.063.814-.059 1.221-.089.14-.01.282-.016.414-.055.059-.018.095-.112.141-.171-.059-.044-.119-.125-.178-.125-.256.002-.513.037-.77.042-.278.005-.561.017-.835-.024-.402-.058-.515-.205-.552-.6-.032-.336.121-.481.454-.42.368.067.732.158 1.101.213.578.086 1.006-.366.909-.94-.045-.262-.209-.435-.476-.422-.19.01-.391.073-.558.164a1.788 1.788 0 0 1-1.007.242c-.218-.015-.393-.103-.463-.314-.086-.264-.183-.535-.21-.808-.052-.542.182-.886.692-1.089.173-.069.353-.122.534-.168a9.592 9.592 0 0 1 3.097-.279c.474.037.953.117 1.41.247.483.139.525.346.279.715-.02.03-.035.061-.055.09-.119.18-.107.35.031.514.075.09.144.184.214.279.55.747 1.025 1.534 1.26 2.444.022.083.059.163.09.244.25-.87.6-1.648 1.312-2.229.718-.585 1.578-.685 2.49-.723-4.04-3.674-10.707-3.941-15.079-.344.15.178.302.355.451.534.393.47.38.979.023 1.516-.09.135-.197.258-.308.403.62.707 1.396 1.24 2.067 1.888l-.877 1.935-3.828-3.3.12-.47c-.588.721-1.024 1.523-1.375 2.387.079.034.14.069.206.089.549.168.862.534.939 1.102.018.139.033.278.052.417.017.123.037.245.054.359 1.417.145 2.712.227 4.262-.066Zm4.279 9.19c-.087.095-.125.138-.165.18-1.111 1.14-2.132 2.359-3.12 3.604-.197.248-.395.32-.68.296-.124-.01-.264-.08-.418.056 2.9 1.435 5.869 1.773 8.99.916a2.547 2.547 0 0 1-.291-1.222c.002-.614.286-1.05.858-1.278.226-.091.466-.15.703-.215.382-.105.428-.161.395-.564-.045-.547-.097-1.093-.15-1.64-.01-.11-.036-.218-.056-.34l-.318.06a4.214 4.214 0 0 1-2.182-.12c-.252-.082-.513-.191-.716-.355-.591-.477-1.066-1.049-1.273-1.803-.077-.278-.161-.554-.258-.886-.17.141-.32.247-.447.377-.335.343-.67.688-.984 1.049-.222.254-.42.53-.611.81-.151.222-.129.306.076.476.099.081.215.143.309.23.115.108.215.233.338.37Zm3.038-7.438c.02.03.056.105.109.164.81.892 1.806 1.313 3.013 1.116.615-.101 1.086-.448 1.3-1.048.17-.478.184-.967.045-1.477-.332-1.21-1.078-2.159-1.864-3.089-.032-.038-.084-.06-.128-.091-.027.042-.047.059-.051.079-.149.883-.497 1.698-.876 2.5-.094.2-.196.405-.34.568-.38.427-.783.831-1.208 1.278Z"/><path fill="#676767" d="M26.185 7.511h10.363c.034.07.075.139.103.213.744 1.968 1.201 3.999 1.303 6.102.196 4.046-.855 7.738-3.171 11.067-1.427 2.05-3.117 3.845-5.163 5.296-.095.067-.189.139-.293.192-.053.027-.126.017-.203.026-.005-.188.13-.265.215-.364a14.88 14.88 0 0 0 2.901-5.155c.411-1.273.664-2.577.697-3.916.077-3.102-.564-6.029-2.191-8.7-1.085-1.783-2.535-3.228-4.228-4.438l-.362-.263.029-.06ZM.687 11.395h5.56c-.204.305-.387.567-.558.837a15.362 15.362 0 0 0-.936 1.682 15.58 15.58 0 0 0-.98 2.73 14.555 14.555 0 0 0-.347 1.892 14.65 14.65 0 0 0-.092 1.923c.004.326.01.654.033.98.023.313.062.627.106.939.046.323.096.646.161.966.066.32.146.637.234.952.084.303.178.605.282.902A15.637 15.637 0 0 0 4.915 27a15.398 15.398 0 0 0 .977 1.66c.176.26.37.51.554.766.18.254.423.469.585.79-.232.039-.33-.055-.418-.137-.476-.447-.975-.875-1.412-1.358-1.823-2.019-3.061-4.371-3.894-6.946-.504-1.559-.866-3.15-1.027-4.783a17.255 17.255 0 0 1 .34-5.43c.013-.054.041-.106.066-.169v.001ZM25.418 4.263c-.088.025-.175.053-.264.074a.926.926 0 0 1-1.129-.685c-.189-.776.41-1.719 1.193-1.88.732-.149 1.532.5 1.54 1.246.005.385-.111.735-.267 1.078-.24.527-.553.997-1.009 1.369-.617.503-1.317.343-1.784.006-.445-.321-.508-.726-.196-1.211l.324.087c-.048.088-.083.147-.115.208-.131.258-.116.504.04.686a.593.593 0 0 0 .702.163c.205-.099.409-.235.56-.403.184-.204.312-.458.464-.691l-.06-.047Zm-.27-.08c.053-.02.165-.04.244-.101.495-.386.783-.9.824-1.521.026-.381-.402-.593-.722-.385a.768.768 0 0 0-.253.237c-.203.353-.39.714-.572 1.078a.57.57 0 0 0-.038.273c.014.257.213.43.516.42ZM15.225 1.945c.152.072.285.139.42.2.756.337.822 1.422.24 1.912-.474.4-1.01.521-1.6.34-.87-.269-1.08-1.256-.429-1.78l.106-.08c-.065-.058-.107-.107-.16-.142-.47-.312-.643-.675-.529-1.224.094-.45.556-.832 1.059-.896.16-.02.328-.022.488-.001.728.092 1.043.857.6 1.444-.055.072-.118.138-.195.227Zm.498 1.51c0-.33-.157-.568-.462-.67-.274-.093-.565-.135-.849-.2-.172-.039-.286.04-.386.172A.877.877 0 0 0 14 3.829c.242.345.723.512 1.116.389.378-.119.609-.409.607-.763Zm-.397-2.127c-.044-.369-.245-.663-.56-.778a.851.851 0 0 0-.897.22c-.253.278-.215.695.122.858.266.128.571.183.864.248.07.015.194-.038.237-.099.096-.136.158-.298.234-.449ZM18.825.644l.18-.644 2.627.381c.035.33-.082.54-.285.745-.789.794-1.252 1.758-1.434 2.86-.013.079-.032.157-.056.277l-.842-.11c.22-1.318.918-2.316 1.962-3.188L18.825.644ZM8.299 3.931l-.185-.317c.367-.326.619-.707.589-1.22l.415-.24 2.01 3.57-.652.387L8.86 3.246 8.3 3.93ZM68.589 21.823h1.668v7.935l.709.039v2.088c-.42.044-.848.013-1.32.016v-1.516h-9.16v-8.511c.287-.089 1.06-.108 1.632-.032v7.913h2.41v-7.93h1.663c.021 1.32.006 2.64.009 3.96.003 1.31 0 2.622 0 3.964h2.388v-7.926ZM76.414 21.82h1.735v8.536h-1.628V23.61l-.102-.018-2.493 6.772h-1.668c-.092-.303-.129-7.691-.041-8.53h1.631v6.749l.102.017c.82-2.259 1.641-4.517 2.464-6.779ZM104.973 12.251l-2.492 6.77h-1.661c-.085-.322-.113-7.902-.032-8.533h1.583v6.798l.096.022c.458-1.12.838-2.272 1.259-3.407.421-1.136.827-2.277 1.243-3.423h1.728v8.56H105.079v-6.772a9.497 9.497 0 0 1-.105-.015h-.001ZM49.421 22.414h-2.677v7.94h-1.631v-8.525h5.947c.003 2.836 0 5.665.001 8.523h-1.64v-7.938ZM59.123 26.074a10.38 10.38 0 0 1-.26 2.134c-.404 1.863-2.168 2.502-3.577 2.292-1.088-.162-1.824-.743-2.24-1.765-.466-1.142-.545-2.324-.445-3.53.05-.593.2-1.164.408-1.723.441-1.184 1.329-1.752 2.55-1.827.404-.025.823.018 1.219.103.822.177 1.415.666 1.77 1.438.423.914.581 1.88.575 2.878Zm-1.73.113-.06-.001c0-.423.003-.846-.002-1.269a7.644 7.644 0 0 0-.03-.591c-.05-.549-.11-1.094-.386-1.59-.218-.393-.542-.595-.994-.605-.595-.014-1.005.218-1.227.781-.138.35-.256.73-.274 1.1a58.826 58.826 0 0 0-.063 3.34c.006.617.074 1.238.308 1.825.207.517.569.842 1.136.876.582.035.96-.285 1.187-.787.114-.254.217-.53.244-.803.076-.757.11-1.517.16-2.276ZM97.914 19.04l-2.27-4.247c-.373.313-.62.63-.595 1.152.044.872.012 1.75.012 2.624v.442h-1.65v-8.527h1.656v3.838l.077.022c.09-.1.183-.197.267-.301l2.511-3.145c.252-.315.62-.451 1.102-.409-.766.978-1.542 1.899-2.3 2.857l3.039 5.662c-.34.058-.645.023-.944.03-.296.006-.592.001-.905.001ZM46.794 11.078v2.926c.483 0 .946-.012 1.407.004.324.01.655.018.966.095 1.172.289 1.826 1.115 1.851 2.316.006.266.003.54-.052.8-.213.987-1.075 1.701-2.152 1.798-.267.024-.537.02-.806.022-.82.002-1.64.001-2.461 0-.138 0-.276-.013-.434-.02v-8.485c.289-.091 4.384-.12 5.003-.033v.577h-3.322Zm.004 3.515v3.925c.446-.023.868-.017 1.282-.073.643-.086 1.04-.48 1.191-1.104.15-.62.116-1.234-.142-1.823-.178-.405-.46-.71-.899-.838-.467-.138-.942-.126-1.432-.087ZM53.562 18.99v-7.914c-.339-.005-.657-.012-.975-.015-.322-.002-.644 0-.985 0v-.572h3.635v3.493c.184.01.322.02.46.021.467.005.934-.013 1.4.012 1.928.104 3.042 2.04 2.15 3.754-.42.807-1.154 1.208-2.038 1.244-1.158.048-2.32.018-3.479.02-.04 0-.079-.02-.167-.043h-.001Zm1.698-.495c.391 0 .732.027 1.066-.005.82-.078 1.296-.486 1.447-1.255.115-.59.081-1.18-.182-1.74-.142-.302-.343-.55-.64-.712-.394-.215-1.22-.282-1.69-.134l-.001 3.846ZM78.883 10.461c.979 0 1.923-.006 2.867.004.295.004.597.02.882.088.354.083.705.202 1.039.347.506.22.827.62.991 1.147.177.566.204 1.14.045 1.71a1.929 1.929 0 0 1-1.087 1.28 4.674 4.674 0 0 1-1.93.422c-.364.005-.728.001-1.143.001v3.55h-1.665l.001-8.549Zm1.677 4.456c.518-.052.987-.062 1.439-.154.59-.12.982-.496 1.088-1.104.086-.49.083-.985-.057-1.469-.123-.427-.371-.76-.778-.955-.545-.26-1.117-.209-1.692-.16v3.842ZM77.822 19.02H76.15c-.18-.651-.361-1.312-.558-2.03a148.87 148.87 0 0 0-2.756 0l-.583 2.022h-.641l2.437-8.532h1.428l2.345 8.54Zm-3.525-6.894-.092-.007-1.195 4.22c.483.08 2.068.066 2.415-.025l-1.128-4.188ZM91.811 12.836l-.703.346c0-.173.016-.296-.002-.413-.046-.291-.077-.59-.17-.867-.18-.546-.543-.926-1.135-1.019-.658-.103-1.252.034-1.653.61-.183.262-.353.557-.435.861a9.197 9.197 0 0 0-.014 4.769c.076.293.23.578.4.832.724 1.087 2.291.793 2.828-.032a2.49 2.49 0 0 0 .42-1.312c.007-.252.002-.505.002-.812l.668.183c.12.406.06.796-.037 1.176-.301 1.177-1.217 1.935-2.481 2.01a5.228 5.228 0 0 1-1.346-.11c-.833-.17-1.454-.659-1.872-1.404a4.673 4.673 0 0 1-.572-1.803c-.145-1.334.003-2.615.665-3.815.856-1.552 2.412-1.875 3.683-1.633.974.186 1.584.906 1.715 1.957.017.139.024.28.04.476h-.001ZM66.117 19.021H64.44l-1.723-6.865c-.714 2.267-1.288 4.566-1.92 6.857h-.641l2.318-8.533h1.419l2.224 8.541ZM67.116 10.474h4.733v.583h-3.08v7.946h-1.653v-8.529Z"/></svg>