<svg xmlns="http://www.w3.org/2000/svg" width="98" height="28" fill="none"><path fill="#676767" d="M97.39 23.008H27.008v.144h70.383v-.144ZM.014 0s.127 6.9 3.002 11.145c1.898 2.806 2.3 3.237 2.3 5.273C5.351 19 3.534 28 3.534 28s2.559-9.443 2.484-12.605c-.063-2.646-1.438-3.98-2.79-5.826C.75 6.16.015 0 .015 0Z"/><path fill="#676767" d="M8.065 15.567c.72-3.45 1.772-4.025 2.197-7.735a6.148 6.148 0 0 0-2.858-6.078v5.722c-1.725-.374-1.012-2.33-1.397-3.071C5.363 3.145.676.305.676.305s3.364 2.743 4.387 4.79c.702 1.346.53 2.956 2.341 3.531v18.402H8.98c-.662-2.133-1.88-6.947-.915-11.46ZM7.427 1.765s4.882 1.823 3.887 7.057a11.775 11.775 0 0 1-1.408 3.404c1.53-1.058 4.801-3.45 5.095-4.6.132-.524-.374-.685-1.007-.811a15.33 15.33 0 0 0-2.352-.196c.8-.11 1.61-.155 2.421-.132 1.053.052 2.024.195 2.14.667.368 1.484-5.648 4.083-6.827 6.165a12.912 12.912 0 0 0-.81 2.38 13.512 13.512 0 0 0 2.375 11.33h8.735V.252L7.427 1.765ZM74.589 11.501h-8.747v1.858h3.278v7.148h2.231v-7.148h3.238V11.5ZM45.22 11.501v6.585c0 .34-.27.61-.61.61h-3.835a.61.61 0 0 1-.615-.604v-6.59h-2.191v7.36c.04.92.805 1.645 1.725 1.645h6.015c.943 0 1.708-.753 1.725-1.697v-7.309H45.22ZM51.85 18.695a.917.917 0 0 1-.92-.868v-6.326h-2.035v7.31c.017.937.788 1.69 1.725 1.69h3.623l.978-1.806h-3.37ZM85.314 16.608a1.728 1.728 0 0 0-1.68-1.604h-5.37a.577.577 0 0 1-.524-.518v-.656a.57.57 0 0 1 .524-.546h4.157a.517.517 0 0 1 .575.454v.121h2.042v-.667a1.723 1.723 0 0 0-1.639-1.69h-6.038c-.909.01-1.65.73-1.697 1.633v1.938a1.73 1.73 0 0 0 1.725 1.662h5.326c.27.005.494.218.523.488v.95a.576.576 0 0 1-.575.523h-4.509a.577.577 0 0 1-.575-.576v-.166h-2.07v.799c0 .932.736 1.696 1.668 1.725h6.389c.92 0 1.679-.719 1.725-1.639l.023-2.231ZM36.646 17.287c0-.851-.656-1.559-1.507-1.622h-.046c.748.029 1.38-.54 1.432-1.288v-1.392a1.526 1.526 0 0 0-1.483-1.484h-8v9.006h8.097a1.51 1.51 0 0 0 1.507-1.455v-1.765Zm-2.128-3.595v.685a.63.63 0 0 1-.575.62h-4.75v-1.931h4.75c.322.034.57.304.575.626Zm.155 4.446a.692.692 0 0 1-.684.575h-4.796v-2.036h4.928a.62.62 0 0 1 .575.61l-.023.85Z"/><path fill="#676767" fill-rule="evenodd" d="M62.41 19.345c0 .742-.599 1.346-1.34 1.352a1.351 1.351 0 0 1-1.352-1.34c0-.742.598-1.346 1.34-1.352h.011c.736 0 1.334.593 1.34 1.329v.011Z" clip-rule="evenodd"/><path fill="#676767" d="M66.94 20.507s-4.485-8.23-4.698-8.626a1.45 1.45 0 0 0-2.335 0l-4.686 8.626h2.46l3.405-6.602 3.416 6.602h2.438ZM97.401 20.507s-4.48-8.23-4.698-8.626a1.45 1.45 0 0 0-2.335 0l-4.71 8.626h2.462l3.41-6.602 3.416 6.602h2.456ZM27.008 27.028v-1.806h1.15c.305 0 .656.064.656.575 0 .512-.3.575-.811.575h-.575v.656h-.42Zm.391-.96h.512c.425 0 .489-.052.489-.248 0-.195 0-.247-.3-.247h-.7v.495ZM30.28 27.028h-1.058V25.55h-.397v-.328h.788v.685h.661c.38 0 .736.069.736.575s-.391.546-.73.546Zm-.667-.333h.655c.345 0 .345-.08.345-.213s0-.23-.385-.23h-.615v.443ZM33.403 27.01h-.581l-1.052-.764-.104.006v.759h-.391v-1.789h.391v.708h.15l.856-.69.368-.018h.236l-.195.156-.92.713 1.035.765.207.155Z"/><path fill="#676767" d="M34.3 27.028c-.737 0-.995-.138-.995-.908 0-.771.264-.915 1-.915s.995.138.995.915c0 .776-.264.908-1 .908Zm0-1.495c-.576 0-.61.063-.61.575s.04.575.61.575c.569 0 .575-.063.575-.575s-.03-.575-.576-.575ZM35.536 27.028v-1.806h1.15c.27 0 .633.052.633.483a.419.419 0 0 1-.133.357c.144.075.224.23.207.391 0 .368-.207.575-.638.575h-1.22Zm.414-.333h.61c.396 0 .442-.04.442-.207 0-.167 0-.213-.34-.213h-.735l.023.42Zm0-.748h.627c.345 0 .356-.069.356-.207 0-.138 0-.167-.264-.167h-.742l.023.374ZM38.543 27.028c-.736 0-.995-.138-.995-.908 0-.771.26-.915 1.001-.915.742 0 .995.138.995.915 0 .776-.259.908-1 .908Zm0-1.495c-.575 0-.603.063-.603.575s.04.575.603.575c.564 0 .575-.063.575-.575s0-.575-.575-.575ZM41.465 27.379v-.35h-1.42v.373h-.351v-.719h.178a.748.748 0 0 0 .184-.54v-.92h1.639v1.46h.161v.696h-.391Zm-1.162-.696h.978v-1.15h-.863v.575c.018.201-.023.397-.115.575ZM42.903 27.028c-.662 0-.955-.132-.955-.908 0-.777.305-.915.955-.915.65 0 .874.138.914.61v.063h-.38v-.069c0-.224-.04-.299-.529-.299-.489 0-.575.092-.575.575s.087.575.575.575c.49 0 .575-.092.575-.316v-.08h.386v.08c0 .54-.317.644-.943.644M44.984 27.01h-.39v-1.454h-.725v-.334h1.828v.334h-.713v1.455ZM47.066 27.028H45.87v-1.806h1.15c.27 0 .633.052.633.483a.418.418 0 0 1-.132.357c.143.08.218.236.195.397 0 .368-.207.575-.638.575l-.012-.006Zm-.793-.328h.61c.396 0 .442-.04.442-.207 0-.166 0-.212-.34-.212h-.724l.012.42Zm0-.747h.627c.339 0 .356-.07.356-.207 0-.138 0-.167-.264-.167h-.73l.01.374ZM48.895 27.028c-.737 0-.995-.138-.995-.908 0-.771.258-.915 1-.915s.995.138.995.915c0 .776-.276.908-1 .908Zm0-1.495c-.576 0-.576.063-.576.575s.04.575.576.575c.534 0 .575-.063.575-.575s0-.575-.575-.575ZM52.805 27.01h-.39v-.747h-1.14v.748h-.39v-1.789h.39v.72h1.14v-.72h.39v1.789ZM55.22 27.028h-.46v-.046l-.143-.287H53.57l-.155.287v.046h-.431l.057-.126.805-1.616v-.046h.443v.046l.817 1.616.115.126Zm-1.483-.661h.725l-.391-.753-.334.753ZM57.28 27.028h-1.197v-1.806h1.15c.27 0 .633.052.633.483a.415.415 0 0 1-.127.357c.138.08.213.236.19.397 0 .368-.207.575-.632.575l-.018-.006Zm-.788-.328h.575c.402 0 .442-.04.442-.207 0-.166 0-.212-.339-.212h-.696l.018.42Zm0-.747h.626c.34 0 .357-.07.357-.207 0-.138 0-.167-.27-.167h-.73l.017.374ZM59.425 27.028h-1.053V25.55h-.403v-.328h.788v.685h.662c.38 0 .736.069.736.575s-.391.546-.73.546Zm-.668-.333h.656c.35 0 .35-.08.35-.213s0-.23-.39-.23h-.616v.443ZM61.31 27.028c-.627 0-.931-.08-.931-.535v-.08l.075-.058h.31v.138c0 .155 0 .207.575.207s.535-.126.535-.23c0-.103 0-.207-.385-.207h-.575v-.328h.575c.356 0 .356-.063.356-.212 0-.15-.034-.19-.494-.19-.46 0-.49.08-.506.253v.075h-.449v-.087c0-.523.403-.575.891-.575.49 0 .892.08.892.49a.445.445 0 0 1-.161.384.408.408 0 0 1 .195.409c0 .443-.368.535-.926.535M64.53 27.379h-.367v-.35h-1.42v.373h-.375v-.719h.179a.748.748 0 0 0 .184-.54v-.92h1.639v1.46h.16v.696Zm-1.529-.696h.983v-1.15h-.862v.575c.017.201-.023.397-.121.575ZM65.29 27.028h-.294v-.345h.219c.11 0 .144 0 .173-.063l-.782-1.265-.081-.133h.443v.04l.604 1.013.575-1.012v-.04h.431l-.845 1.495a.505.505 0 0 1-.472.293M69.862 27.01h-3.129v-1.788h.391v1.455h.978v-1.455h.39v1.455h.973v-1.455h.397v1.789ZM72.127 27.01h-.39v-.747h-1.145v.748h-.385v-1.789h.385v.72h1.144v-.72h.391v1.789ZM73.381 27.028c-.736 0-1-.138-1-.908 0-.771.264-.915 1.006-.915s.995.138.995.915c0 .776-.265.908-1 .908Zm0-1.495c-.575 0-.575.063-.575.575s.035.575.575.575c.54 0 .575-.063.575-.575s-.034-.575-.575-.575ZM75.56 27.01h-.396v-1.454h-.72v-.334h1.824v.334h-.707v1.455ZM77.36 27.028c-.736 0-1-.138-1-.908 0-.771.264-.915 1.006-.915s.995.138.995.915c0 .776-.264.908-1 .908Zm0-1.495c-.575 0-.603.063-.603.575s.034.575.603.575c.57 0 .604-.063.604-.575s-.028-.575-.603-.575ZM81.403 27.379h-.368v-.35h-1.42v.373h-.374v-.719h.178a.77.77 0 0 0 .178-.54v-.92h1.645v1.46h.161v.696Zm-1.53-.696h.984v-1.15h-.863v.575c.017.201-.029.397-.12.575ZM82.824 27.028h-1.196v-1.806h1.15c.27 0 .632.052.632.483a.414.414 0 0 1-.126.357c.138.08.213.236.19.397 0 .368-.208.575-.633.575l-.017-.006Zm-.788-.328h.604c.402 0 .442-.04.442-.207 0-.166 0-.212-.339-.212h-.707v.42Zm0-.747h.627c.339 0 .35-.07.35-.207 0-.138 0-.167-.258-.167h-.72v.374ZM85.728 27.01h-.391v-1.356l-1.127 1.328-.023.029h-.495v-1.789h.391v1.37l1.127-1.34.023-.03h.495v1.789ZM89.368 27.01h-.575l-.903-.77-.092.012v.759h-.39v-.753h-.144l-.811.73-.397.023h-.224l.178-.155.914-.765-.759-.72-.155-.149h.512l.788.725.097-.011v-.714h.391v.708h.138l.702-.685.35-.023h.202l-.155.15-.76.719.915.765.178.155ZM90.984 27.005h-1.558v-1.783h1.564v.328h-1.173v.386h1.116v.322h-1.116v.42h1.167v.327ZM93.169 27.005h-.391v-.742h-1.144v.742h-.391v-1.777h.39v.713h1.145v-.713h.391v1.777ZM95.533 27.005h-.385v-1.357l-1.133 1.334-.023.023h-.49v-1.777h.392v1.369l1.121-1.346.023-.023h.495v1.777ZM97.425 27.005h-1.553v-1.777h1.564v.322h-1.178v.386h1.121v.322h-1.121v.425h1.167v.322Z"/></svg>