<svg xmlns="http://www.w3.org/2000/svg" width="65" height="18" fill="none"><path fill="#676767" d="M56.082 14.959c.91 0 1.827-.01 2.743.011.131.003.305.13.381.248.33.516.695.672 1.412.56.516-.08.763-.433.825-.88.098-.696.131-1.4.192-2.104-.106-.008-.161-.022-.168-.01-.713 1.165-1.825 1.397-3.088 1.207-1.162-.175-1.767-.954-2.124-1.965-.582-1.644-.523-3.337-.373-5.03.087-.988.305-1.93.896-2.785.96-1.389 3.978-1.408 4.733.306.02.048.075.082.189.201V3.496h3.094c.01.206.027.403.027.6.003 3.243.002 6.486.003 9.728 0 2.685-1.168 3.933-3.938 4.146-1.115.086-2.223-.001-3.275-.43-1.083-.442-1.68-1.42-1.529-2.581Zm5.565-6.511c-.095-.57-.161-1.37-.387-2.126-.08-.264-.55-.57-.846-.575-.299-.004-.621.321-.894.546-.116.094-.182.302-.184.458-.011 1.313-.07 2.631.027 3.937.053.723.457.963 1.047.944.552-.018.918-.34 1.024-1.01.101-.641.13-1.293.213-2.174ZM48.56 13.326v.954h-3.215V.014c1.027 0 2.036-.012 3.046.02.101.002.273.27.276.416.026 1.1.015 2.199.018 3.298v.695c.323-.307.546-.579.825-.774 1.528-1.064 3.73-.436 4.38 1.288a8.01 8.01 0 0 1 .46 2.116c.164 1.878.229 3.762-.455 5.574-.675 1.79-2.84 2.529-4.435 1.53-.339-.212-.665-.442-.998-.664l.098-.187Zm.01-4.51c.095.872.151 1.687.284 2.49.08.483.358.877.95.874.594-.004.913-.38 1.03-.883.126-.542.242-1.103.225-1.652a33.726 33.726 0 0 0-.261-3.32c-.064-.495-.51-.749-1.016-.73-.489.019-.832.315-.906.788-.13.822-.211 1.65-.307 2.432ZM10.8.003c.676 0 1.324-.007 1.972 0 1.38.019 2.768-.037 4.139.087 2.083.19 3.32 1.4 3.504 3.42.08.872.04 1.807-.203 2.643-.472 1.62-1.855 2.481-3.771 2.56a23.73 23.73 0 0 1-1.669.023c-.403-.011-.525.14-.52.524.015 1.472 0 2.944-.002 4.416v.596h-3.449V.002Zm3.458 2.56c0 1.148-.006 2.221.01 3.296 0 .116.1.296.2.335.93.364 2.165-.201 2.32-1.12.086-.512.03-1.073-.081-1.587-.121-.564-.605-.845-1.172-.915-.393-.048-.799-.01-1.277-.01ZM31.417 17.781v-2.244c.284 0 .564.004.844 0 .979-.02 1.495-.707 1.231-1.615-.987-3.4-1.97-6.8-2.953-10.202-.014-.05-.007-.104-.016-.252h2.293c1.17 0 1.155.001 1.348 1.103.336 1.927.691 3.85 1.041 5.773.024.124.07.245.184.365l.825-4.805c.12-.698.221-1.4.366-2.091.028-.132.22-.327.341-.329.994-.027 1.988-.015 3.075-.015-.202.77-.38 1.469-.57 2.164-.84 3.074-1.68 6.15-2.532 9.22-.114.411-.287.81-.459 1.202-.495 1.131-1.407 1.683-2.651 1.723-.765.024-1.532.004-2.366.004h-.001ZM24.203 6.786H21.3c-.238-1.477.627-2.903 2.044-3.307a7.995 7.995 0 0 1 4.152-.068c1.322.326 2.017 1.17 2.048 2.496.041 1.751.001 3.504.031 5.255.017 1.034.104 2.065.161 3.153-.835 0-1.79.01-2.743-.014-.116-.003-.28-.168-.326-.292-.085-.222-.097-.47-.156-.795-.623.881-1.438 1.313-2.475 1.37-1.75.096-2.861-.797-3.054-2.482-.11-.96-.134-1.928.461-2.748.294-.403.729-.803 1.19-.98.94-.357 1.943-.558 2.918-.832.51-.143.9-.367.896-.989-.006-.741-.262-1.124-.905-1.19-.694-.073-1.15.28-1.28.992-.022.128-.035.256-.059.43ZM26.42 9.06c-.44.17-.827.322-1.216.47-.807.306-1.112.796-1.018 1.648.083.756.417 1.125 1.013 1.118a1.207 1.207 0 0 0 1.213-1.171c.031-.667.008-1.336.008-2.065ZM9.51 9.444H3.634c.114.86.183 1.649.336 2.422.088.441.45.668.934.68.488.01.821-.226.969-.647.14-.4.194-.83.292-1.271h3.02c.224 1.73-.918 3.363-2.635 3.776a6.962 6.962 0 0 1-3.361-.016C1.918 14.066 1.08 13.243.752 12.02.207 9.988.172 7.927.708 5.891c.43-1.629 1.755-2.619 3.485-2.657.8-.018 1.615.018 2.399.16 1.19.215 2.044.944 2.309 2.087.291 1.259.402 2.558.61 3.962ZM6.125 7.478c-.08-.57-.106-1.088-.236-1.582-.113-.429-.442-.669-.944-.657-.478.011-.847.202-.978.63-.154.504-.207 1.036-.313 1.609h2.471ZM40.14 14.286v-3.563h3.19v3.563h-3.19Z"/></svg>