<svg width="61" height="24" viewBox="0 0 61 24" fill="none" xmlns="http://www.w3.org/2000/svg">
<g clip-path="url(#clip0_1466_34863)">
<path d="M60.2823 6.94727L52.8875 24H50.5997L53.3455 18.034L48.4805 6.94727H50.8894L54.4058 15.45H54.4529L57.8733 6.94727H60.2823Z" fill="#676767"/>
<path d="M46.7008 7.87869C45.7533 6.99997 44.4604 6.56201 42.8224 6.56201C40.7183 6.56201 39.1294 7.33425 38.0518 8.88084L40.0046 10.1129C40.7267 9.06491 41.7048 8.54268 42.9421 8.54268C43.7619 8.54268 44.4738 8.81137 45.0849 9.35053C45.696 9.89145 46.0005 10.547 46.0005 11.3196V11.8266C45.1506 11.3449 44.0646 11.1034 42.7483 11.1034C41.2082 11.1034 39.9758 11.4652 39.0517 12.1902C38.1295 12.9152 37.668 13.8887 37.668 15.1106C37.668 16.3324 38.1056 17.2365 38.9808 18.0105C39.8543 18.7845 40.9451 19.1699 42.2446 19.1699C43.7696 19.1699 44.9901 18.494 45.9043 17.142H46.0019V18.7849H48.1194V11.4888C48.1194 9.95915 47.6481 8.75601 46.7005 7.87905L46.7008 7.87869ZM44.9051 16.1515C44.1728 16.8426 43.3446 17.1893 42.4122 17.1893C41.754 17.1893 41.1815 16.9967 40.6919 16.6113C40.2002 16.2227 39.9565 15.7411 39.9565 15.1613C39.9565 14.5157 40.2578 13.9783 40.8605 13.5439C41.4614 13.1095 42.2123 12.8915 43.1111 12.8915C44.3467 12.8915 45.3111 13.1638 46.0012 13.7128C46.0012 14.6458 45.636 15.4586 44.9054 16.1515H44.9051Z" fill="#676767"/>
<path d="M36.1262 2.9855C35.081 1.9883 33.8148 1.48828 32.3218 1.48828H26.4453V18.7843H28.6604V11.7774H32.3215C33.8296 11.7774 35.0989 11.2872 36.1258 10.3038C37.1879 9.32349 37.7165 8.09814 37.7165 6.633C37.7165 5.16787 37.1879 3.98483 36.1258 2.98586L36.1262 2.9855ZM34.5622 8.75895C33.9831 9.35382 33.2525 9.65284 32.3706 9.65284H28.6608V3.61281H32.3706C33.2525 3.61281 33.9834 3.91889 34.5622 4.53068C35.1565 5.12732 35.4525 5.82868 35.4525 6.633C35.4525 7.43733 35.1561 8.16408 34.5622 8.75895Z" fill="#676767"/>
<path d="M19.4541 13.4922C19.0091 15.0229 18.1859 16.4538 17.0346 17.5537C16.9974 17.5893 16.9598 17.6242 16.9222 17.6591C16.9201 17.6612 16.9187 17.663 16.9166 17.6647C15.7846 18.712 14.3661 19.4398 12.8636 19.7921C12.8499 19.7956 12.8358 19.7988 12.8221 19.802C12.3624 19.9067 11.8953 19.9832 11.4257 20.0308C10.6752 20.1063 9.91654 20.1063 9.1674 20.0227C8.79476 19.9815 8.42388 19.9194 8.05756 19.8355C7.93674 19.808 7.81663 19.7783 7.69686 19.7459C6.37489 19.3912 5.1316 18.7617 4.0618 17.9066C3.82262 17.7141 3.59187 17.5103 3.37061 17.297C3.36394 17.2906 3.35761 17.2843 3.35094 17.2783C2.57089 16.5247 1.91237 15.6425 1.41224 14.6763C1.39152 14.6357 1.3708 14.5955 1.35043 14.555C1.13057 14.1184 0.944071 13.6657 0.791644 13.202C0.71508 12.9707 0.647296 12.7358 0.588292 12.4989C0.552468 12.3568 0.519805 12.2143 0.491005 12.0708C0.451669 11.8797 0.418304 11.6871 0.390558 11.4942C0.225136 10.3556 0.253585 9.18847 0.481874 8.05973C0.492761 8.00472 0.504 7.95042 0.515941 7.89541C0.692602 7.07628 0.972168 6.28359 1.35007 5.53462C2.08938 4.05362 3.208 2.76938 4.55701 1.81731H4.55736C4.68907 1.72386 4.82253 1.63465 4.9581 1.54826C4.99216 1.52675 5.02658 1.50559 5.0603 1.48408C5.12879 1.44177 5.19798 1.40016 5.26716 1.35925C5.40625 1.27815 5.54708 1.19987 5.69003 1.12511C5.76167 1.08774 5.83297 1.05142 5.90532 1.01615C6.26637 0.838434 6.6383 0.683634 7.01902 0.55246C7.08505 0.529187 7.15108 0.507324 7.2171 0.485814C7.3165 0.453726 7.41589 0.423048 7.51634 0.394133C7.58342 0.374387 7.65121 0.35605 7.71864 0.338067C7.78537 0.320083 7.8528 0.303157 7.91988 0.286584C7.95817 0.277064 7.9961 0.268248 8.03438 0.25908C8.09549 0.244975 8.15625 0.231576 8.21771 0.218529C8.22158 0.217823 8.22509 0.217118 8.2286 0.21606C8.42212 0.175156 8.61669 0.140247 8.81232 0.111332C8.83199 0.108159 8.85166 0.105338 8.87167 0.102869C10.508 -0.13127 12.204 0.0376348 13.7571 0.614521C14.9501 1.05318 16.0424 1.75066 16.978 2.61634C16.6644 2.9538 16.3283 3.27433 16.0031 3.60615C15.387 4.21935 14.7766 4.83785 14.1603 5.4507C14.1596 5.45 14.1581 5.44929 14.1574 5.44788L14.149 5.45634C13.5386 4.87135 12.7993 4.43269 11.9926 4.18515C11.046 3.89847 10.0268 3.85862 9.05782 4.06702C8.70801 4.14142 8.36663 4.24932 8.03754 4.3879C8.03368 4.38931 8.03017 4.39108 8.0263 4.39249C7.29964 4.70279 6.63514 5.16014 6.08339 5.7261C5.42767 6.38937 4.9293 7.21062 4.63252 8.09359C4.63041 8.09217 4.62831 8.09041 4.6262 8.089C4.19561 9.34292 4.20123 10.7428 4.62655 11.9964C4.62409 11.9985 4.62163 12.0003 4.61917 12.0024C4.61988 12.0038 4.62023 12.0052 4.62058 12.0066C4.62269 12.0055 4.62444 12.0038 4.62655 12.0024C5.04098 13.2397 5.85334 14.336 6.91787 15.0843C7.58412 15.5564 8.34591 15.8886 9.14703 16.0512C9.93129 16.2088 10.7489 16.1918 11.5332 16.0571C12.3174 15.9221 13.0736 15.6294 13.7346 15.1855C13.7346 15.1855 13.7348 15.1857 13.7353 15.1862C13.7388 15.1841 13.7423 15.1819 13.7455 15.1795C14.7896 14.4704 15.5226 13.3342 15.734 12.0866H10.2839V8.16693H10.2895V8.16129H19.7056C20.0192 9.92721 19.9521 11.7661 19.4534 13.4925L19.4541 13.4922Z" fill="#676767"/>
</g>
<defs>
<clipPath id="clip0_1466_34863">
<rect width="60" height="24" fill="white" transform="translate(0.285156)"/>
</clipPath>
</defs>
</svg>
