<svg width="124" height="24" viewBox="0 0 124 24" fill="none" xmlns="http://www.w3.org/2000/svg">
<g clip-path="url(#clip0_1466_34876)">
<path d="M37.3877 21H39.809L33.8043 15L38.7436 9.19355H36.7098L31.4799 14.9032L37.3877 20.9032V21ZM29.0586 21H30.8988V6H29.0586V21Z" fill="#676767"/>
<path d="M17.0497 21.0968H15.9844V9H17.8245V17.6129L24.9915 9H26.0568V21H24.2167V12.3871L17.0497 21.0968Z" fill="#676767"/>
<path d="M43.0042 24.0002H41.1641V9.00019H43.0042V9.48406C43.1979 9.48406 43.3916 9.29051 43.4885 9.29051C43.779 9.19374 44.0696 9.09696 44.3601 9.00019C44.6507 9.00019 44.9412 8.90341 45.2318 8.80664H46.1034C46.9751 8.80664 47.7499 9.00019 48.4278 9.29051C49.1058 9.58083 49.7837 10.0647 50.268 10.5486C50.7523 11.1292 51.2365 11.8066 51.5271 12.4841C51.8176 13.2583 52.0113 14.0324 52.0113 14.9034C52.0113 15.7744 51.8176 16.6453 51.5271 17.3228C51.2365 18.097 50.7523 18.7744 50.268 19.355C49.6869 19.9357 49.1058 20.3228 48.331 20.7099C47.5562 21.0002 46.7814 21.1937 46.0066 21.1937H45.1349C44.8444 21.1937 44.5538 21.1937 44.2633 21.0002C43.9727 21.0002 43.6822 20.8066 43.3916 20.7099C43.1979 20.7099 43.0042 20.6131 42.9074 20.5163V24.0002H43.0042ZM43.0042 18.6776C43.1979 18.7744 43.4885 18.8712 43.6822 18.9679C43.9727 19.0647 44.1664 19.1615 44.3601 19.2583C44.5538 19.2583 44.8444 19.355 45.0381 19.355H45.8129C46.4908 19.355 47.0719 19.2583 47.5562 19.0647C48.0404 18.8712 48.5247 18.5808 48.9121 18.1937C49.2995 17.8066 49.59 17.3228 49.7837 16.8389C49.9775 16.2583 50.0743 15.6776 50.0743 15.0002C50.0743 14.3228 49.9775 13.7421 49.7837 13.1615C49.59 12.5808 49.2995 12.097 48.8152 11.7099C48.4278 11.3228 47.9436 11.0324 47.4593 10.7421C46.8782 10.5486 46.2971 10.4518 45.716 10.4518H45.0381C44.8444 10.4518 44.5538 10.4518 44.3601 10.5486C44.1664 10.5486 43.8759 10.7421 43.6822 10.8389C43.4885 10.8389 43.2948 11.0324 43.0042 11.1292V18.6776Z" fill="#676767"/>
<path d="M77.001 24H75.2577V21C74.3861 21 73.5144 20.8065 72.8364 20.6129C71.9648 20.3226 71.2868 19.9355 70.6089 19.3548C70.0278 18.871 69.5435 18.1936 69.1561 17.4194C68.7687 16.6452 68.6719 15.871 68.6719 15C68.6719 14.129 68.8656 13.2581 69.1561 12.5806C69.5435 11.8065 70.0278 11.2258 70.6089 10.6452C71.19 10.1613 71.9648 9.67742 72.8364 9.3871C73.6112 9.09677 74.3861 9 75.2577 9V6H77.001V9C77.8727 9 78.7443 9.19355 79.4223 9.3871C80.2939 9.67742 80.9719 10.0645 81.6498 10.6452C82.2309 11.129 82.7152 11.8065 83.1026 12.5806C83.49 13.3548 83.5868 14.129 83.5868 15C83.5868 15.871 83.3931 16.7419 83.1026 17.4194C82.7152 18.1936 82.2309 18.7742 81.6498 19.3548C81.0687 19.8387 80.2939 20.3226 79.4223 20.6129C78.6475 20.9032 77.8727 21 77.001 21V24ZM77.001 10.6452V19.2581C77.5821 19.2581 78.2601 19.1613 78.7443 18.9677C79.3254 18.7742 79.9065 18.4839 80.2939 18.0968C80.7782 17.7097 81.0687 17.2258 81.3593 16.7419C81.6498 16.2581 81.7467 15.5806 81.7467 15C81.7467 14.4194 81.6498 13.7419 81.3593 13.2581C81.0687 12.7742 80.7782 12.2903 80.2939 11.9032C79.8097 11.5161 79.3254 11.2258 78.7443 11.0323C78.1632 10.8387 77.5821 10.7419 77.001 10.7419V10.6452ZM75.2577 10.6452C74.6766 10.6452 73.9986 10.7419 73.5144 10.9355C72.9333 11.129 72.3522 11.4194 71.9648 11.8065C71.4805 12.1935 71.19 12.6774 70.8994 13.1613C70.6089 13.6452 70.512 14.2258 70.512 14.9032C70.512 15.5806 70.6089 16.1613 70.8994 16.6452C71.19 17.129 71.4805 17.6129 71.9648 18C72.449 18.3871 72.9333 18.6774 73.5144 18.871C74.0955 19.0645 74.6766 19.1613 75.2577 19.1613V10.5484V10.6452Z" fill="#676767"/>
<path d="M109.638 21H107.798V15.6774H101.309V21H99.4688V9H101.309V13.8387H107.798V9H109.638V21Z" fill="#676767"/>
<path d="M123.877 24.0002H122.133V21.097H113.126V24.0002H111.383V19.355H112.448L117.194 8.80664H118.356L122.811 19.355H123.877V24.0002ZM114.482 19.2583H121.068L117.872 11.7099L114.482 19.2583Z" fill="#676767"/>
<path d="M60.3422 21.2901C56.8555 21.2901 54.0469 18.4837 54.0469 14.9998C54.0469 11.5159 56.8555 8.70947 60.3422 8.70947C63.8288 8.70947 66.6374 11.5159 66.6374 14.9998C66.6374 18.4837 63.8288 21.2901 60.3422 21.2901ZM60.3422 10.645C57.9209 10.645 55.887 12.6772 55.887 15.0966C55.887 17.5159 57.9209 19.5482 60.3422 19.5482C62.7634 19.5482 64.7973 17.6127 64.7973 15.0966C64.7973 12.5804 62.7634 10.645 60.3422 10.645Z" fill="#676767"/>
<path d="M97.1452 21.0001H95.3051V20.7098C95.3051 18.2904 93.3681 16.2581 90.85 16.2581C88.3319 16.2581 86.3948 18.2904 86.3948 20.7098V21.0001H84.5547V20.7098C84.5547 17.2259 87.3633 14.4194 90.85 14.4194C94.3366 14.4194 97.1452 17.2259 97.1452 20.7098V21.0001Z" fill="#676767"/>
<path d="M90.85 12.5806C87.3633 12.5806 84.5547 9.77419 84.5547 6.29032C84.5547 2.80645 87.3633 0 90.85 0C94.3366 0 97.1452 2.80645 97.1452 6.29032C97.1452 9.77419 94.3366 12.5806 90.85 12.5806ZM90.85 1.83871C88.4287 1.83871 86.3948 3.87097 86.3948 6.29032C86.3948 8.70968 88.4287 10.7419 90.85 10.7419C93.2712 10.7419 95.3051 8.80645 95.3051 6.29032C95.3051 3.77419 93.3681 1.83871 90.85 1.83871Z" fill="#676767"/>
<path d="M12.7876 21H10.9474V12.0968L7.26713 17.2258H6.10492C6.10492 17.129 2.52146 12.0968 2.52146 12.0968V21H0.875V9H2.61831C2.61831 9.09677 6.87972 15 6.87972 15L11.1411 9H12.7876V21Z" fill="#676767"/>
</g>
<defs>
<clipPath id="clip0_1466_34876">
<rect width="123" height="24" fill="white" transform="translate(0.875)"/>
</clipPath>
</defs>
</svg>
