<svg xmlns="http://www.w3.org/2000/svg" width="69" height="18" fill="none"><path fill="#676767" d="M12.835 1.422A4.773 4.773 0 0 0 9.027.076H3.77a.71.71 0 0 0-.71.61L.928 14.115a.457.457 0 0 0 .432.507h2.538a.711.711 0 0 0 .686-.507l.584-3.656a.711.711 0 0 1 .71-.61h1.65a5.382 5.382 0 0 0 5.967-5.077 4.013 4.013 0 0 0-.66-3.351ZM9.61 4.95c-.28 1.878-1.727 1.878-3.098 1.878h-.787L6.26 3.3a.457.457 0 0 1 .432-.38h.38c.94 0 1.829 0 2.286.558a1.726 1.726 0 0 1 .254 1.473Zm15.08 0h-2.539a.406.406 0 0 0-.431.38v.711l-.178-.254a3.478 3.478 0 0 0-2.945-1.066 5.763 5.763 0 0 0-5.61 5.078 4.85 4.85 0 0 0 .939 3.884 3.886 3.886 0 0 0 3.148 1.295 4.798 4.798 0 0 0 3.478-1.447v.685a.432.432 0 0 0 .431.508h2.26a.711.711 0 0 0 .71-.61L25.3 5.459a.431.431 0 0 0-.61-.584v.077ZM21.187 9.8a2.818 2.818 0 0 1-2.843 2.411 2.081 2.081 0 0 1-1.676-.685 2.184 2.184 0 0 1-.406-1.777A2.843 2.843 0 0 1 19.08 7.21a2.107 2.107 0 0 1 1.676.711 2.182 2.182 0 0 1 .431 1.879Zm16.858-4.926h-2.539a.711.711 0 0 0-.61.33l-3.477 5.078-1.473-4.95a.762.762 0 0 0-.71-.534h-2.54a.456.456 0 0 0-.431.584l2.793 8.226-2.54 3.706a.43.43 0 0 0 .356.686h2.54a.738.738 0 0 0 .608-.305L38.4 5.484a.432.432 0 0 0-.355-.61Zm12.16-3.452A4.773 4.773 0 0 0 46.398.076h-5.255a.71.71 0 0 0-.71.61l-2.108 13.43a.432.432 0 0 0 .432.507h2.69a.482.482 0 0 0 .483-.431l.61-3.834a.71.71 0 0 1 .71-.61h1.676a5.408 5.408 0 0 0 5.966-5.077 4.087 4.087 0 0 0-.685-3.25Zm-3.198 3.605c-.305 1.878-1.727 1.878-3.123 1.878h-.787l.559-3.528a.405.405 0 0 1 .431-.381h.356c.939 0 1.853 0 2.31.558a1.726 1.726 0 0 1 .254 1.397v.076Zm15.055 0h-2.54a.432.432 0 0 0-.43.38v.711l-.178-.253a3.529 3.529 0 0 0-2.97-1.067 5.814 5.814 0 0 0-5.611 5.078 4.85 4.85 0 0 0 .939 3.884 3.909 3.909 0 0 0 3.173 1.295 4.799 4.799 0 0 0 3.478-1.447v.685a.43.43 0 0 0 .432.508h2.26a.71.71 0 0 0 .71-.61l1.219-8.809a.456.456 0 0 0-.482-.508v.153ZM58.558 9.8a2.767 2.767 0 0 1-2.818 2.411 2.108 2.108 0 0 1-1.7-.685 2.159 2.159 0 0 1-.382-1.777 2.818 2.818 0 0 1 2.793-2.539 2.031 2.031 0 0 1 2.107 2.539v.05ZM67.875 0h-2.538a.457.457 0 0 0-.432.355l-2.03 13.76a.43.43 0 0 0 .43.508h2.159a.71.71 0 0 0 .71-.609L68.307.482A.457.457 0 0 0 67.875 0Z"/></svg>